/* XPM */
static char * collectable_xpm[] = {
"50 50 474 2",
"  	c #4EAF7B",
". 	c #51B17A",
"+ 	c #5BB770",
"@ 	c #68C062",
"# 	c #72C859",
"$ 	c #6EC45D",
"% 	c #56B474",
"& 	c #64BB67",
"* 	c #4FB07B",
"= 	c #67C063",
"- 	c #6CC45E",
"; 	c #5CB86E",
"> 	c #57B573",
", 	c #4EAF7C",
"' 	c #50B07B",
") 	c #5EBA6C",
"! 	c #53B278",
"~ 	c #6BC360",
"{ 	c #64BD67",
"] 	c #71C659",
"^ 	c #6CC260",
"/ 	c #63BD67",
"( 	c #73C857",
"_ 	c #6FC65B",
": 	c #6BC25F",
"< 	c #61BC69",
"[ 	c #5AB770",
"} 	c #74C858",
"| 	c #74C857",
"1 	c #73C658",
"2 	c #6FC25D",
"3 	c #5BB76F",
"4 	c #67BF63",
"5 	c #5FBA6B",
"6 	c #74C757",
"7 	c #73C757",
"8 	c #70C45C",
"9 	c #58AF74",
"0 	c #55AF76",
"a 	c #53AB79",
"b 	c #75C856",
"c 	c #64BC67",
"d 	c #51AB7A",
"e 	c #6ABF61",
"f 	c #66B14E",
"g 	c #3D6835",
"h 	c #130324",
"i 	c #140424",
"j 	c #150525",
"k 	c #140425",
"l 	c #3D6836",
"m 	c #60BA6B",
"n 	c #71C355",
"o 	c #6AB851",
"p 	c #5C9B48",
"q 	c #465E38",
"r 	c #32192C",
"s 	c #271026",
"t 	c #240C22",
"u 	c #290F21",
"v 	c #2C1121",
"w 	c #3F5D31",
"x 	c #5C9C46",
"y 	c #6AB951",
"z 	c #71C455",
"A 	c #68BE63",
"B 	c #63B86A",
"C 	c #6AB750",
"D 	c #4F883F",
"E 	c #435837",
"F 	c #6A4E3F",
"G 	c #6E443C",
"H 	c #4C2728",
"I 	c #421C1D",
"J 	c #51241B",
"K 	c #5A2A1A",
"L 	c #4E3A22",
"M 	c #3D5A30",
"N 	c #4F8941",
"O 	c #6AB751",
"P 	c #62B76A",
"Q 	c #4E873F",
"R 	c #425636",
"S 	c #694D3F",
"T 	c #784B3F",
"U 	c #6A3C31",
"V 	c #5F3126",
"W 	c #5B2B1E",
"X 	c #59291A",
"Y 	c #51241C",
"Z 	c #3F1B1E",
"` 	c #445C2F",
" .	c #5C9B46",
"..	c #51AF7A",
"+.	c #62BA69",
"@.	c #5C9A47",
"#.	c #445C37",
"$.	c #4D2D34",
"%.	c #794B3F",
"&.	c #76483B",
"*.	c #44232A",
"=.	c #401C1E",
"-.	c #6A3116",
";.	c #68411C",
">.	c #43592E",
",.	c #4E8840",
"'.	c #70C35C",
").	c #4E883F",
"!.	c #425A36",
"~.	c #6A5040",
"{.	c #455E38",
"].	c #3D6A36",
"^.	c #455D2F",
"/.	c #6B461E",
"(.	c #6E3415",
"_.	c #4B251C",
":.	c #465D2F",
"<.	c #6BB851",
"[.	c #435A37",
"}.	c #445B37",
"|.	c #5C9B47",
"1.	c #68B34E",
"2.	c #445D2F",
"3.	c #4D261C",
"4.	c #764316",
"5.	c #734E1D",
"6.	c #475B2E",
"7.	c #4F8840",
"8.	c #54B376",
"9.	c #50AD7B",
"0.	c #4EAA7D",
"a.	c #69B550",
"b.	c #4D853E",
"c.	c #69B54F",
"d.	c #74C856",
"e.	c #3C6837",
"f.	c #3E211F",
"g.	c #955D12",
"h.	c #4EB07B",
"i.	c #5BB371",
"j.	c #71C255",
"k.	c #69B650",
"l.	c #68B650",
"m.	c #71C254",
"n.	c #42261F",
"o.	c #9F6B12",
"p.	c #9E6B12",
"q.	c #40241F",
"r.	c #5BB172",
"s.	c #4B5D2E",
"t.	c #83621C",
"u.	c #895E16",
"v.	c #59391C",
"w.	c #495F2F",
"x.	c #5D9C46",
"y.	c #4A5F2F",
"z.	c #895D16",
"A.	c #83611C",
"B.	c #41261F",
"C.	c #A17012",
"D.	c #A27112",
"E.	c #44291F",
"F.	c #42271F",
"G.	c #A17013",
"H.	c #A17113",
"I.	c #44281F",
"J.	c #67B24E",
"K.	c #5A9C46",
"L.	c #355B32",
"M.	c #9B6913",
"N.	c #9B6912",
"O.	c #40261E",
"P.	c #3B6535",
"Q.	c #3C6735",
"R.	c #20322A",
"S.	c #3E221F",
"T.	c #935C12",
"U.	c #925C12",
"V.	c #3C211E",
"W.	c #1F3229",
"X.	c #345B31",
"Y.	c #3C6734",
"Z.	c #3B6534",
"`.	c #69B853",
" +	c #455A32",
".+	c #3C0828",
"++	c #441031",
"@+	c #3F0F30",
"#+	c #300526",
"$+	c #4A181C",
"%+	c #894513",
"&+	c #8D4615",
"*+	c #571C22",
"=+	c #3E0E31",
"-+	c #482140",
";+	c #4D2542",
">+	c #491939",
",+	c #4E5C3B",
"'+	c #5D9B48",
")+	c #425730",
"!+	c #6A2C26",
"~+	c #8F0D30",
"{+	c #A7274A",
"]+	c #9B2649",
"^+	c #6F0B2A",
"/+	c #660C19",
"(+	c #812817",
"_+	c #8F2D1E",
":+	c #8F192E",
"<+	c #9D2A4D",
"[+	c #B85E79",
"}+	c #C26781",
"|+	c #B74464",
"1+	c #8D3B4A",
"2+	c #4A5939",
"3+	c #71C456",
"4+	c #445A32",
"5+	c #510223",
"6+	c #870021",
"7+	c #B40D30",
"8+	c #D22A4F",
"9+	c #CC2E52",
"0+	c #A51939",
"a+	c #951B31",
"b+	c #9F363D",
"c+	c #B0494E",
"d+	c #C45363",
"e+	c #DC657C",
"f+	c #F47D96",
"g+	c #F97691",
"h+	c #E94D70",
"i+	c #B62E52",
"j+	c #691B3D",
"k+	c #4B5C3A",
"l+	c #445731",
"m+	c #6A2C27",
"n+	c #92001F",
"o+	c #A30727",
"p+	c #BA193B",
"q+	c #C72549",
"r+	c #C92C50",
"s+	c #D14362",
"t+	c #DE6B7F",
"u+	c #E9969E",
"v+	c #F0BFBA",
"w+	c #F3B4B5",
"x+	c #F0778E",
"y+	c #E44A6D",
"z+	c #D03156",
"A+	c #C1294E",
"B+	c #B62F53",
"C+	c #8D3C4C",
"D+	c #4D593A",
"E+	c #6CC060",
"F+	c #61B76B",
"G+	c #390424",
"H+	c #830123",
"I+	c #A60021",
"J+	c #9B001F",
"K+	c #980322",
"L+	c #A00B2B",
"M+	c #AE1739",
"N+	c #C0284B",
"O+	c #D04262",
"P+	c #DB647E",
"Q+	c #E18D9A",
"R+	c #E0B7B2",
"S+	c #DBA3A2",
"T+	c #D2546C",
"U+	c #C42449",
"V+	c #B4183C",
"W+	c #BE2044",
"X+	c #DD385D",
"Y+	c #B33357",
"Z+	c #481435",
"`+	c #3C6835",
" @	c #820122",
".@	c #A80021",
"+@	c #A40021",
"@@	c #980021",
"#@	c #8A0321",
"$@	c #860724",
"%@	c #8D0D2A",
"&@	c #931532",
"*@	c #97203B",
"=@	c #982D44",
"-@	c #983B4C",
";@	c #9B3547",
">@	c #A11A36",
",@	c #A10A2A",
"'@	c #9B0626",
")@	c #AE1536",
"!@	c #D73458",
"~@	c #B23357",
"{@	c #390627",
"]@	c #83062B",
"^@	c #AB042A",
"/@	c #A80125",
"(@	c #9B0020",
"_@	c #85001C",
":@	c #77001A",
"<@	c #740019",
"[@	c #720018",
"}@	c #720017",
"|@	c #720016",
"1@	c #770017",
"2@	c #83001A",
"3@	c #89001B",
"4@	c #8C001B",
"5@	c #A40E2D",
"6@	c #CA2B4E",
"7@	c #A82C50",
"8@	c #451233",
"9@	c #5DB76E",
"0@	c #3A092C",
"a@	c #87103C",
"b@	c #AF0F3B",
"c@	c #A9052A",
"d@	c #9E0020",
"e@	c #90001D",
"f@	c #83001B",
"g@	c #78001A",
"h@	c #730019",
"i@	c #730018",
"j@	c #750018",
"k@	c #790019",
"l@	c #7F001A",
"m@	c #8A001B",
"n@	c #9F0929",
"o@	c #BA1D41",
"p@	c #981E42",
"q@	c #400E2E",
"r@	c #54AC78",
"s@	c #3C0D31",
"t@	c #8D1C4C",
"u@	c #B51C4E",
"v@	c #AD0D38",
"w@	c #A30328",
"x@	c #9A0021",
"y@	c #8F001D",
"z@	c #82001C",
"A@	c #7B001B",
"B@	c #7C001B",
"C@	c #7A001B",
"D@	c #77001B",
"E@	c #75001A",
"F@	c #74001A",
"G@	c #7A001A",
"H@	c #88001B",
"I@	c #9D0726",
"J@	c #B4163A",
"K@	c #92183C",
"L@	c #3E0B2C",
"M@	c #67B14D",
"N@	c #3D1035",
"O@	c #912659",
"P@	c #BA2A62",
"Q@	c #B21B4D",
"R@	c #A90E39",
"S@	c #A30428",
"T@	c #9A001F",
"U@	c #89001D",
"V@	c #8A001D",
"W@	c #B5173A",
"X@	c #93183C",
"Y@	c #3E0C2C",
"Z@	c #47593C",
"`@	c #753851",
" #	c #9C2A5F",
".#	c #B3295F",
"+#	c #B91F52",
"@#	c #AE0E39",
"##	c #95001E",
"$#	c #93001E",
"%#	c #76001A",
"&#	c #79001B",
"*#	c #84011E",
"=#	c #950524",
"-#	c #9C0B2C",
";#	c #951437",
">#	c #773239",
",#	c #475835",
"'#	c #455C3B",
")#	c #611D48",
"!#	c #AF356C",
"~#	c #CE3670",
"{#	c #9C001F",
"]#	c #79001A",
"^#	c #960524",
"/#	c #AC1134",
"(#	c #961437",
"_#	c #590E30",
":#	c #465B36",
"<#	c #5D9B47",
"[#	c #4F893E",
"}#	c #4A593F",
"|#	c #8A4260",
"1#	c #B4295F",
"2#	c #A20429",
"3#	c #930120",
"4#	c #87001C",
"5#	c #80001B",
"6#	c #84001C",
"7#	c #92001D",
"8#	c #980626",
"9#	c #961335",
"0#	c #77343A",
"a#	c #455835",
"b#	c #4F8940",
"c#	c #6BB951",
"d#	c #5D9C49",
"e#	c #4B5D40",
"f#	c #9D2A5F",
"g#	c #BB2A62",
"h#	c #B61C4F",
"i#	c #A40F39",
"j#	c #8A0424",
"k#	c #80001A",
"l#	c #88001C",
"m#	c #94001E",
"n#	c #A10020",
"o#	c #8B0324",
"p#	c #56092A",
"q#	c #475C37",
"r#	c #5C9C47",
"s#	c #477B3B",
"t#	c #3C4237",
"u#	c #732E50",
"v#	c #912658",
"w#	c #8D1B4C",
"x#	c #7E103A",
"y#	c #670626",
"z#	c #61011D",
"A#	c #6C011E",
"B#	c #780120",
"C#	c #800122",
"D#	c #691C26",
"E#	c #3A402C",
"F#	c #477B3C",
"G#	c #66B14F",
"H#	c #73C657",
"I#	c #72C456",
"J#	c #6DBC53",
"K#	c #65AE4E",
"L#	c #579646",
"M#	c #49773E",
"N#	c #3F4438",
"O#	c #37092C",
"P#	c #300625",
"Q#	c #2E0422",
"R#	c #320422",
"S#	c #350423",
"T#	c #380424",
"U#	c #3D432D",
"V#	c #49773C",
"W#	c #579746",
"X#	c #69B651",
"Y#	c #63AA4E",
"Z#	c #5FA24B",
"`#	c #508942",
" $	c #2F4F2F",
".$	c #110422",
"+$	c #120523",
"@$	c #120524",
"#$	c #130524",
"$$	c #130625",
"%$	c #120625",
"&$	c #120624",
"*$	c #2F4F30",
"=$	c #63AB4E",
"-$	c #58B273",
";$	c #4DA77F",
">$	c #4FA67E",
",$	c #55AC77",
"  . . + @ # $ + % & @ + . . * * * . . * * % = # - ; = = > . * * , , ' . . . + = ) ! + ~ # @ + . . . ",
". + { = ] # ] { { @ ^ + + ) . , * . ) + > / # ( _ : - _ = / ; * , , % < { % [ ~ @ = = ] } ] = < [ . ",
") @ ] ] | | # # 1 1 ] { { 2 ) ) 3 / : 4 { ] | ( # _ ( ( ] _ = 5 ) ) { ] # = { # # ] ] # | } ] ] @ ) ",
"$ ] | | | | | | | | 6 ] ] ] $ $ - _ 7 _ _ | | | ( ( ( ( ( ( ] _ 2 8 ] | } ] 8 } } } } } | | | | # $ ",
"| | | | | | | | | | | | | | | | ( ( ( | | | | | | ( | | ( ( ( ( | | | | | | | | } | } } | | | | } } ",
"| | | | | | | | | | | | | | | | ( ( | | | | | | | | | | ( ( | | | | | | | | | | | | | | | | | | } } ",
"@ ] | | | | | | | | | | | | | | ( ( ( | | | | | | | | | ( | | | | | | | | | | | | | | | | | | 1 $ ^ ",
"9 { # | | | | | | | | | | | | | ( ( ( | | | | | | | | | | | | | | | | | | | | | | | | | | | | } { 0 ",
"a & 1 | | | | | | | | | | | | | ( b | | | | | | | | ( | | | | | | | | | | | | | | | | | | | } # c d ",
") e 1 6 | | | | | | | | f g h i j k k k l f | ( | | | ( | | | | | | | | | | | | | | | | | | } ] @ m ",
"e @ 8 6 | | 6 | | 6 n o p q r s t u v v w x y z | | | | | | | | | | | | | | | | | | | | | | 1 2 @ A ",
"9 9 B ] | | | | | 6 C D E F G H I J K K L M N O | | | | | | | | | | | | | | | | | | | | | | 1 P 9 9 ",
"d 9 & ] 6 | 6 | | | C Q R S T U V W X X Y Z `  .o z | | | | ( | | | | | | | | | | | | | | 6 1 & 9 a ",
"..+.] 1 | | | | | | n O @.#.$.%.&.*.u u =.-.;.>.,.O | | | | ( | | | | | | | | | | | | | | | 6 ] +.. ",
". +.'.6 | | | | | | | | C ).!.S ~.{.].].^./.(._.:.x <.z | | | | | | | | | | | | | | | | } 6 1 '.m . ",
". 0 +.2 6 6 | | | | | | z <.@.[.}.|.1.1.x 2.3.4.5.6.7.O | | ( | | | | | | | | | | | | | } } 2 & 8.9.",
", 0.0 +.] | | | | | | | | | a.b.b.c.d.d.f e.f.g.g.f.e.f | | | | | | | | | | | | | | | | 1 8 +.0 0.h.",
", , * i.^ 1 | | | | | | | | j.k.l.m.( d.f e.n.o.p.q.e.f | | | | | | | | | | | | | | | | } 2 r..., h.",
"* . + / ] ] | | | | | | | | | | b ( d.( O 7.s.t.u.v.w.x.<.z | | | | | | | | | | | | | | | 1 { r.*   ",
"* + @ # | | | | | | | | | | | | ( b ( | z <.x.y.v.z.A.s.7.O | | | | | | | | | | | | | | | | } @ 3 . ",
". < ] ( | | | | | | | | | | | | ( | | | | | f e.B.C.D.E.l f | | | | | | | | | | | | | | | | | ] +...",
"% @ # | | | | | | | | | | | | | | ( | | | | f e.F.G.H.I.l f | | | | | | | | | | | | | | | | | 1 4 > ",
"= ~ | | | | | | | | | | | | | | | | n C f J.K.L.B.M.N.O.L.K.J.f C n | | | | | | | | | | | | | | _ 4 ",
"< 2 ( | | | | | | | | } | | | | ( | C 7.P.Q.L.R.S.T.U.V.W.X.Y.Z.).C | | 6 | | | | | | | | | | | 2 +.",
") ~ } | | | | } | | | ( | | | | z `. . +.+++@+#+$+%+&+*+=+-+;+>+,+'+o z | | | | | | | | | | | 6 @ 5 ",
"@ ] 6 } | | | 1 | | | | | | } | O ,.)+!+~+{+]+^+/+(+_+:+<+[+}+|+1+2+).C | | | | | | | | | | | | _ : ",
"# } 1 } | | | | | | | | | | 3+<. .4+5+6+7+8+9+0+a+b+c+d+e+f+g+h+i+j+k+'+<.z | | | | | | 6 | 6 1 ] ( ",
"= { ^ 1 1 6 | | | | | | } | O 7.l+m+6+n+o+p+q+r+s+t+u+v+w+x+y+z+A+B+C+D+D C | | | | | 6 6 6 ] E+{ { ",
"a 0 F+1 6 6 | | | | | | | | f l G+H+I+J+K+L+M+N+O+P+Q+R+S+T+U+V+W+X+Y+Z+`+f | | | | | | 6 1 ] & 0 a ",
"d + A 1 | | | | | | | | | | f l G+ @.@+@@@#@$@%@&@*@=@-@;@>@,@'@)@!@~@Z+`+f | | | | | | 6 6 ] e 9 d ",
". < 1 1 | | | | | | | | | | f g {@]@^@/@(@_@:@<@[@}@}@|@1@2@3@4@5@6@7@8@g f | | | | | | | 6 6 ] { . ",
". 9@@ 1 | | | 6 | | | | | | f g 0@a@b@c@d@e@f@g@h@h@i@i@j@k@l@m@n@o@p@q@g f | | | | | | 6 | 6 2 9@. ",
"..r@+ ^ ] | | | | | | | | | f g s@t@u@v@w@x@y@z@A@B@C@D@E@F@G@H@I@J@K@L@g M@| | | | | | 1 } ^ r.a , ",
"9., a 9@$ | | | | | | | | | f g N@O@P@Q@R@S@T@y@U@V@_@C@F@F@G@H@I@W@X@Y@g f | | | | | | 1 2 9@r@, * ",
", , r@F+2 | | | | | | | | | C D Z@`@ #.#+#@#w@x@##$#V@B@%#&#*#=#-#;#>#,#7.C | | | | | | 1 '.F+..* * ",
"..! F+e ] | | | | | | | | | z <.p '#)#!#~#+#R@S@{###V@A@]#f@^#/#(#_#:#<#<.z | | | | | | } 1 e m 8., ",
". + e 6 | | | | | | | | | | | | C [#}#|#!#1#Q@v@2#3#4#5#6#7#8#9#0#a#b#C | | | | | | | | } | 6 ^ + , ",
", + { 7 | | | | | | | | | | | | z c#d#e#)#f#g#h#i#j#k#l#m#n#o#p#q#r#c#z | | | | | | | | } 1 1 A + ..",
"i.i.+.] | | | | | | | | | | | | | 7 f s#t#u#v#w#x#y#z#A#B#C#D#E#F#G#H#| | | | | | | | | | 1 1 B i.+ ",
"@ 2 @ # | | | | | | | | | | | | I#J#K#L#M#N#N@s@O#P#Q#R#S#T#U#V#W#K#J#I#| | | | | | | | 6 1 1 ^ ^ $ ",
"1 } } | | | | | | | | | | | | | j.X#Y#Z#`# $.$+$@$#$$$$$%$&$*$`#Z#=$X#j.| | | | | | | | | | | } ] ] ",
"{ $ 1 | | | | | | | | | | | | | | | | | | | | | | | | | | | | | | | | | | | | | | | | | | | b 1 $ A ",
"m @ 1 | | | | | | | | | | | | | | | | 6 | | 6 | | | | | | | | | | | | | | | | | | | | | | | | 1 e ) ",
"^ ] 1 } | | | | | | | | | | | | | | | | | | | | | | | | | | | | | | | | | | | | | | | | | | | | $ 2 ",
"| | } 1 | | 6 6 | | 6 6 | | | | } | | | | | | | | | | | 6 6 6 6 | | | | 6 6 | | | | 6 6 | | | | 6 | ",
"| | | | | | 6 6 | 6 6 6 | | | | 1 1 | | | | | | | | | | 6 6 6 6 b b b | 1 1 6 1 6 | 6 b | | | | 6 6 ",
"8 ] | 6 6 | 6 6 | 6 6 '.8 1 8 '.^ 2 1 ] ] 1 | 1 | | | | 6 6 ] 2 ^ 2 ] 1 } ] 8 1 | b 6 1 1 } b | ] 2 ",
"+.A ] 1 6 6 6 ] ] 1 ] B & ^ F+r.-$F+2 & +.'.1 1 | 1 1 | ] ] { r.r.r.& 8 8 A & 8 1 1 1 1 b 1 1 1 A r.",
". + +.{ ] 6 ] & P @ ^ i.9 + a ;$;$a 9@0 0 P ] ] ] @ 2 ] A { + 0.;$d r@< { i.i.@ e P & ] 6 ] A & + 0.",
"... ..0 e ] 2 0 >$r.@ i.. . , , , , ....0.,$e ] @ 9@{ @ -$. . h., , , 9.. ..i.@ 9@>$0 ^ 1 ^ + ! 9., "};
