/* XPM */
static char * exit_open_xpm[] = {
"50 50 225 2",
"  	c #4EAF7B",
". 	c #51B17A",
"+ 	c #5BB770",
"@ 	c #68C062",
"# 	c #72C859",
"$ 	c #6EC45D",
"% 	c #56B474",
"& 	c #64BB67",
"* 	c #4FB07B",
"= 	c #67C063",
"- 	c #6CC45E",
"; 	c #5CB86E",
"> 	c #57B573",
", 	c #4EAF7C",
"' 	c #50B07B",
") 	c #5EBA6C",
"! 	c #53B278",
"~ 	c #6BC360",
"{ 	c #64BD67",
"] 	c #71C659",
"^ 	c #6CC260",
"/ 	c #63BD67",
"( 	c #73C857",
"_ 	c #6FC65B",
": 	c #6BC25F",
"< 	c #61BC69",
"[ 	c #5AB770",
"} 	c #74C858",
"| 	c #74C857",
"1 	c #73C658",
"2 	c #6FC25D",
"3 	c #5BB76F",
"4 	c #67BF63",
"5 	c #5FBA6B",
"6 	c #74C757",
"7 	c #47823B",
"8 	c #37662D",
"9 	c #73C757",
"0 	c #70C45C",
"a 	c #6FBF53",
"b 	c #3D6E2C",
"c 	c #5CA044",
"d 	c #65B04C",
"e 	c #5FA647",
"f 	c #6DBC52",
"g 	c #60A848",
"h 	c #366227",
"i 	c #6AB64F",
"j 	c #41742F",
"k 	c #54933E",
"l 	c #4C8437",
"m 	c #40732E",
"n 	c #3D6D2C",
"o 	c #3A6829",
"p 	c #508C3B",
"q 	c #589B42",
"r 	c #447A32",
"s 	c #477E34",
"t 	c #68B54E",
"u 	c #4F8B3B",
"v 	c #40732F",
"w 	c #477E33",
"x 	c #305822",
"y 	c #4B8537",
"z 	c #71C455",
"A 	c #54943E",
"B 	c #589A41",
"C 	c #5CA045",
"D 	c #3B6A2B",
"E 	c #457A32",
"F 	c #4E893A",
"G 	c #58AF74",
"H 	c #5B9F43",
"I 	c #376427",
"J 	c #356026",
"K 	c #4F8B3A",
"L 	c #3B6B2B",
"M 	c #55AF76",
"N 	c #53AB79",
"O 	c #60A649",
"P 	c #4B8538",
"Q 	c #75C856",
"R 	c #53923E",
"S 	c #579740",
"T 	c #325C24",
"U 	c #64BC67",
"V 	c #51AB7A",
"W 	c #6ABF61",
"X 	c #447932",
"Y 	c #60A748",
"Z 	c #569740",
"` 	c #376528",
" .	c #427630",
"..	c #4C8739",
"+.	c #60BA6B",
"@.	c #4C883E",
"#.	c #68B44E",
"$.	c #3C6E2C",
"%.	c #386528",
"&.	c #61A848",
"*.	c #68BE63",
"=.	c #56A25C",
"-.	c #3F7331",
";.	c #477E35",
">.	c #3E6E2D",
",.	c #74C856",
"'.	c #2D5320",
").	c #5BA044",
"!.	c #3E702E",
"~.	c #62B76A",
"{.	c #589D45",
"].	c #3A682A",
"^.	c #437831",
"/.	c #579840",
"(.	c #5B9E44",
"_.	c #53933E",
":.	c #6EBF53",
"<.	c #305922",
"[.	c #3C6B2B",
"}.	c #65AF4C",
"|.	c #51AF7A",
"1.	c #62BA69",
"2.	c #437731",
"3.	c #457A33",
"4.	c #2A4F1D",
"5.	c #488035",
"6.	c #70C35C",
"7.	c #4C8738",
"8.	c #64B04C",
"9.	c #52913D",
"0.	c #4F8C3A",
"a.	c #54943F",
"b.	c #4B8637",
"c.	c #4D8839",
"d.	c #54B376",
"e.	c #50AD7B",
"f.	c #4EAA7D",
"g.	c #61A949",
"h.	c #3A672A",
"i.	c #63AC4A",
"j.	c #5B9F44",
"k.	c #4EB07B",
"l.	c #5BB371",
"m.	c #65B04B",
"n.	c #498236",
"o.	c #488034",
"p.	c #5BB172",
"q.	c #40722E",
"r.	c #3E6E2C",
"s.	c #56973F",
"t.	c #3E6F2D",
"u.	c #447B33",
"v.	c #3D6E2D",
"w.	c #325B23",
"x.	c #6FBE53",
"y.	c #3E702D",
"z.	c #437630",
"A.	c #4B873A",
"B.	c #3F722E",
"C.	c #498136",
"D.	c #407330",
"E.	c #3C6C2B",
"F.	c #579841",
"G.	c #508D3B",
"H.	c #69B64F",
"I.	c #6EBE52",
"J.	c #6FC053",
"K.	c #6AB54F",
"L.	c #38682B",
"M.	c #6CC060",
"N.	c #61B76B",
"O.	c #5A9E43",
"P.	c #52923E",
"Q.	c #477D33",
"R.	c #40722F",
"S.	c #4D8A3B",
"T.	c #528F3C",
"U.	c #41732F",
"V.	c #396729",
"W.	c #6CBB51",
"X.	c #5DB76E",
"Y.	c #54AC78",
"Z.	c #417430",
"`.	c #5EA446",
" +	c #315B23",
".+	c #4A8337",
"++	c #53903D",
"@+	c #4C8538",
"#+	c #2F5521",
"$+	c #376428",
"%+	c #356025",
"&+	c #396628",
"*+	c #63B86A",
"=+	c #52903D",
"-+	c #477C33",
";+	c #55963F",
">+	c #3A682B",
",+	c #6AB74F",
"'+	c #53913D",
")+	c #437631",
"!+	c #4F8D3B",
"~+	c #40742F",
"{+	c #335D24",
"]+	c #498135",
"^+	c #72C555",
"/+	c #457B33",
"(+	c #3A692A",
"_+	c #487E34",
":+	c #73C656",
"<+	c #73C556",
"[+	c #6CBC51",
"}+	c #386629",
"|+	c #61A849",
"1+	c #6FBF54",
"2+	c #3C6C2D",
"3+	c #5C9F44",
"4+	c #4E8A3B",
"5+	c #58B273",
"6+	c #5A9D44",
"7+	c #3E6F2E",
"8+	c #64AE4C",
"9+	c #4DA77F",
"0+	c #6CBD55",
"a+	c #4FA67E",
"b+	c #55AC77",
"  . . + @ # $ + % & @ + . . * * * . . * * % = # - ; = = > . * * , , ' . . . + = ) ! + ~ # @ + . . . ",
". + { = ] # ] { { @ ^ + + ) . , * . ) + > / # ( _ : - _ = / ; * , , % < { % [ ~ @ = = ] } ] = < [ . ",
") @ ] ] | | # # 1 1 ] { { 2 ) ) 3 / : 4 { ] | ( # _ ( ( ] _ = 5 ) ) { ] # = { # # ] ] # | } ] ] @ ) ",
"$ ] | | | | | | | | 6 ] ] ] 7 8 - _ 9 _ _ | | | ( ( ( ( ( ( ] _ 2 0 ] | } ] 0 } } } } } | | | | # $ ",
"| | | | | | | | | | | | | a b c ( ( ( d d e f | | ( | | ( ( ( ( g | | | | | a h d | } } | | | | } } ",
"| | | | | | a a a i i i i j k | ( ( | d l m f | | | | | ( ( | g n o p d | q r q | | | | q s t | } } ",
"@ ] | | | g u v v w w w w r q | ( ( ( x y a | | | | | | ( d k u z A l B C D d | | | | | E F z 1 $ ^ ",
"G { # H n I u | | | | | | | | | ( ( ( q d H a | | | | | a J l | | | d K v d | | | | | i L B | } { M ",
"N & O P k a | | | | | | | | | | ( Q | | R u S | | | ( k T u | | | | | a | | | | | q q w u | } # U V ",
") W X Y | | | | | | | | | | | | ( Q | Q | B P Z | | | r ` p | | | | | | | | | | d  ...| | | } ] @ +.",
"W @ @.k | | 6 | | 6 #.f | | | 6 Q ( | | | d $.c | | | | d x y | | | | | | | | | | %.&.d | | 1 2 @ *.",
"G G =.-.;.E ..d S S  .>.d | | | ,.Q | | d '.).| | | | | | d q r a | | | | | | | | q !.d H | 1 ~.G G ",
"V G & {.l c ..].^./.e (.!.h B | ( ( Q ( r _.| | | | | | | | :.<.[.| | | | | | | | | a K c }.1 & G N ",
"|.1.] 1 | H d c u a | | |  .D | Q ( Q ( i 2.d | | a a a i 3.4.K q | | | | | | | a 5.r L u | 6 ] 1.. ",
". 1.6.6 | | | a w a | | | a y 7.8.,.,.,.| K E u r 9.u v w u &.| | | | | | a d H ^.u B | } 6 1 6.+.. ",
". M 1.2 6 6 | a w a | | | | | q b 0.,.,.| | a a.J b.d | | | ( | | | a S 5.c.P ^.a | | | } } 2 & d.e.",
", f.M 1.] | | | 2.i | | | | | d k 5.,.,.| | H g | | | | | | | | g.h.y ^.g i.j.a | | | | 1 0 1.M f.k.",
", , * l.^ 1 | a ].d | | | | S q !.m.( ,.| | S :.| | | | | | | d n.o.d | | | | | | | | | } 2 p.|., k.",
"* . + / ] ] S P J g | | | | q.y Q ( ,.( | | K d | | | | | | | a r.| | | | | | | | | | | | 1 { p.*   ",
"* + @ # a H v g d | | | | a j a ( Q ( | | | | R n &.| | | | | | r.j H | | | | | | | | | | | } @ 3 . ",
". < ] ( u J a | | | | | | | r >.8.| | | | | d R g d H a | | | | | g P | | | | | a | | | | | | ] 1.|.",
"% @ # | w i | | | | | | | | | b k ( | | | d B | | | a K d | | | | d s.c.a d K q u S a | | | | 1 4 > ",
"= ~ | | ^.i | | | | | | | | | w t.d | | H a | | | | | B B | | | d R u.v.w u S u k w.w | | | | | _ 4 ",
"< 2 ( | ].y | | | | | } | | | a ` d | d g | | | | | | R | | d 5.d | | | x.a a a | B P a | | | | 2 1.",
") ~ } | a v y.} | | | ( | | | d z.A.&.^.B.| | | | | E k d a H | | | | | | | a d g y S | | | | 6 @ 5 ",
"@ ] 6 } | | C.D.| | | | | | } | d E K E.c.| | | | | d d d F.G.K | | | | | | H 5.y E d | | | | | _ : ",
"# } 1 } | | | u D | | | | | } | | a | H.w a | | | | | | | I.J.H a | | | | | y y | | | | 6 d 5.1 ] ( ",
"= { ^ 1 1 6 | | w i | | } | | | | | | a w :.| | | | | | | | | a H | | | 6 | g u | | a 6 6 K.L.M.{ { ",
"N M N.1 6 6 | a w a | | | | | | | | | a w g a a | | | | | | | | R a | | | | a w O.P.u w Q.R.S.& M N ",
"V + *.1 | | | d P a | | | | | | | | | a K !.u H t T.R R R R R R R U.R | | | | i V.P.d i K.x.] W G V ",
". < 1 1 | | a n y | | | | | | | | | | | | | d D q W.| | | | | | | | | | | | | | k r | | | 6 6 ] { . ",
". X.@ 1 | | i 2.| | | | | | | | | | | | | | | a v.| | | | | | | | | | | | | | | y b | | 6 | 6 2 X.. ",
"|.Y.+ ^ ] | a ].l d q q g g | | | | | | | | | a w a | | | | | | | | | | | Q &.K r d | | 1 } ^ p.N , ",
"e., N X.$ | | d K K q q u Z.K | | | | | | | | `. +| a a a a | | | | | | | | E k a | | | 1 2 X.Y., * ",
", , Y.N.2 | | | | a | | | a v | | | | | | | /.C. .j w w w y d | | | | | | d y a | | | | 1 6.N.|.* * ",
"|.! N.W ] | | | | | | | | a u d | | | | | a ]..+f a a a a y K | | | | | | | w L H | | | } 1 W +.d., ",
". + W 6 | | | | | | | | | a S H | | a | | | C.K | | | | | &.K | | | | | | | | B 3.c | | } | 6 ^ + , ",
", + { 9 | | | | | | | | | a ++@+..5.K 7.r j q d 6 | | | | d q d | | | | | | | | #+$+H | } 1 1 *.+ |.",
"l.l.1.] | | | | | | | | | |  .%+&+&.d q r a 6 | | | | | | d %.a | | 6 | | | S v a | a | | 1 1 *+l.+ ",
"@ 2 @ # | | | | | | | | | d =+-+| | | | | 6 6 | | 6 | | | k E d d | | | | ;+>+,+| | | | 6 1 1 ^ ^ $ ",
"1 } } | | | | | | | | | | d r d | | 6 | | 6 | | | | | | | '+)+D !+| | | | ~+{+9 | | | | | | | } ] ] ",
"{ $ 1 | | d d !.]+a | | | q K a | | | | | ^+| | | | | | d /+,+d H j (+b j n ..q | | | | | | Q 1 $ *.",
"+.@ 1 | a _+b d r w w w w Z.K | | | :+<+^+[+6 | | | | q !.d | | | | a l }+| d !.r d B p K | | 1 W ) ",
"^ ] 1 |+J k | | | a i i i a | | | | J.J.| | | | | | |  .r | | | | | | | | | | | j l j H d | | | $ 2 ",
"| | 1+2+0.| 6 6 | | 6 6 | | | | } | | | | | | | | | | a 2.S 6 6 | | | | 6 6 | | | a x.6 | | | | 6 | ",
"| | | | | | 6 6 | 6 6 6 | | | | 1 1 | | | | | u g | g k n 3+6 6 Q Q Q | 1 1 6 1 6 | 6 Q | | | | 6 6 ",
"0 ] | 6 6 | 6 6 | 6 6 6.0 1 0 6.^ 2 1 ] ] 1 | 4+g d u r S x.] 2 ^ 2 ] 1 } ] 0 1 | Q 6 1 1 } Q | ] 2 ",
"1.*.] 1 6 6 6 ] ] 1 ] *+& ^ N.p.5+N.2 & 1.6.1 6+S 7+8+| ] ] { p.p.p.& 0 0 *.& 0 1 1 1 1 Q 1 1 1 *.p.",
". + 1.{ ] 6 ] & ~.@ ^ l.G + N 9+9+N X.M M ~.] ] 0+@ 2 ] *.{ + f.9+V Y.< { l.l.@ W ~.& ] 6 ] *.& + f.",
"|.. |.M W ] 2 M a+p.@ l.. . , , , , |.|.f.b+W ] @ X.{ @ 5+. . k., , , e.. |.l.@ X.a+M ^ 1 ^ + ! e., "};
