/* XPM */
static char * exit_close_xpm[] = {
"50 50 79 1",
" 	c #4EAF7B",
".	c #51B17A",
"+	c #5BB770",
"@	c #68C062",
"#	c #72C859",
"$	c #6EC45D",
"%	c #56B474",
"&	c #64BB67",
"*	c #4FB07B",
"=	c #67C063",
"-	c #6CC45E",
";	c #5CB86E",
">	c #57B573",
",	c #4EAF7C",
"'	c #50B07B",
")	c #5EBA6C",
"!	c #53B278",
"~	c #6BC360",
"{	c #64BD67",
"]	c #71C659",
"^	c #6CC260",
"/	c #63BD67",
"(	c #73C857",
"_	c #6FC65B",
":	c #6BC25F",
"<	c #61BC69",
"[	c #5AB770",
"}	c #74C858",
"|	c #74C857",
"1	c #73C658",
"2	c #6FC25D",
"3	c #5BB76F",
"4	c #67BF63",
"5	c #5FBA6B",
"6	c #74C757",
"7	c #73C757",
"8	c #70C45C",
"9	c #232222",
"0	c #201F1F",
"a	c #1E1D1D",
"b	c #58AF74",
"c	c #1A1919",
"d	c #181717",
"e	c #55AF76",
"f	c #53AB79",
"g	c #75C856",
"h	c #171616",
"i	c #141313",
"j	c #1C1B1B",
"k	c #64BC67",
"l	c #51AB7A",
"m	c #6ABF61",
"n	c #131212",
"o	c #60BA6B",
"p	c #0E0D0D",
"q	c #68BE63",
"r	c #63B86A",
"s	c #0C0B0B",
"t	c #100F0F",
"u	c #62B76A",
"v	c #51AF7A",
"w	c #62BA69",
"x	c #0A0909",
"y	c #70C35C",
"z	c #54B376",
"A	c #50AD7B",
"B	c #4EAA7D",
"C	c #4EB07B",
"D	c #5BB371",
"E	c #5BB172",
"F	c #090808",
"G	c #6CC060",
"H	c #61B76B",
"I	c #5DB76E",
"J	c #54AC78",
"K	c #58B273",
"L	c #4DA77F",
"M	c #4FA67E",
"N	c #55AC77",
" ..+@#$+%&@+..***..**%=#-;==>.**,,'...+=)!+~#@+...",
".+{=]#]{{@^++).,*.)+>/#(_:-_=/;*,,%<{%[~@==]}]=<[.",
")@]]||##11]{{2))3/:4{]|(#_((]_=5)){]#={##]]#|}]]@)",
"$]||||||||6]]]$$-_7__|||((((((]_28]|}]8}}}}}||||#$",
"||||||||||||||||(((||||||(||((((||||||||}|}}||||}}",
"||||||||||||||||((|||99|||||((||||||||||||||||||}}",
"@]||||||||||||||(((||0a|||||(||||||||||||||||||1$^",
"b{#|||||||||||||(((|acdc|||||||||||||||||||||||}{e",
"f&1|||||||||||||(g||chihc|jccc||||hcc|||d|||||}#kl",
")m16||||||c||hh|dc|cdnnih|cdcdd||chhdc|dd|||||}]@o",
"m@86||6||6chnnhihdndinppndhnhhnnhdnnhhhc||||||12@q",
"bbr]|||||6dhnnninhnhnppsnhntntnnihtptnhh||||||1ubb",
"lb&]6|chnhnptpnnpntnpppstnptptptnnpsptpnhnhc|61&bf",
"vw]1||cdnhpsppntpptpppsxppspppppttpxspsthnhc||6]w.",
".wy6||||thpxsptpspppsxsxpppxpxpppppsxppphn||}61yo.",
".ew266|||hpxxsppsxssxxxxpssssssxsssxssxpn|||}}2&zA",
",Bew]|||||ppssppxxsxxxxxxxxxxxsxxxsxxsxs||||18weBC",
",,*D^1||||npxxsxxxxxxsxxxxxxxxxxxxsxxxpp||||}2Ev,C",
"*.+/]]||||hpxxxxxxxxFxxxxxxFxxxxFxxxxxpn|||||1{E* ",
"*+@#||||chhpxxxxxxxxxxxxxxxxxxxxFxxxxxsnhd||||}@3.",
".<](||||hinpxxxxxxxxxxxFFxxxxxxFxxxxxxxnnh|||||]wv",
"%@#||||ditppxxFxxFxxxFFFFFxxFFxFxFFFxxptnnh||||14>",
"=~|||||citsxxxFFFxxxFxxFFFxxFFxFFFxxxxxptnh|||||_4",
"<2(||||chtpxxFFFFxFFFxxFFxxFFFxxFFxxFxxptid|||||2w",
")~}||||}||isxFxFFxxFxFxFxFFFFFxFxFxFFFxn|||||||6@5",
"@]6}|||1||hpxFxxxFxFxFFxxxFFFxxxxxxFFxxh||||||||_:",
"#}1}|||||hhpxFxxxFFFFFxxxxxFFFxFxxxFFxpidj||6|61](",
"={^116||hhnpFxxxxFFFxxxxxFFxFFxxxxxFFxxnic|666]G{{",
"feH166|chntxxFxxFFxxxxxFFFFxFFFxFFFxFxxsnhd|61]&ef",
"l+q1|||||inxxFxxFFxxxFFxFxxxxxFFFxFFxxxtd|||66]mbl",
".<11||||||ixFFFxFFxxxFFxFxxxxxFFFxFFxxxnj||||66]{.",
".I@1|||6|||xxxFFFxFFFxxFFxFxxFxFFFxxxxsn||||6|62I.",
"vJ+^]||||||sxxFFFxFFFFxFFFFxxFFxFFxxxxpi||||1}^Ef,",
"A,fI$|||ccdpxFxxxxxxxFFFxFFxxFFFFFxFxxphcc||12IJ,*",
",,JH2||chhipxxxxxFxxxFFFxFFxxFFFxFxFxxsnihd|1yHv**",
"v!Hm]||chnnxxxxFFFFxxxxxFFxxFxxxxFFFFxxpnid|}1moz,",
".+m6|||||npxFxFFxxFxxxxxxxFxFxFxxxFFFxxph|||}|6^+,",
",+{7||||||nxxxxxxxxxxxxxxxxxxFFxxsxxxxxtd|||}11q+v",
"DDw]||||||npxxxsxssxxFxxxsxxxFxxxxxxxxpt|||||11rD+",
"@2@#|||||||pxppxptsspxxxpspsxpxxspxxpxp|||||611^^$",
"1}}||||||||||ni|hh6|tpxxp||nntp||hppt||||||||||}]]",
"{$1||||||||||||||||||pspn||nin|||hhn||||||||||g1$q",
"o@1||||||||||||||||6|npt||||||||||c||||||||||||1m)",
"^]1}|||||||||||||||||ac|||||||||||||||||||||||||$2",
"||}1||66||66||||}||||99|||||6666||||66||||66||||6|",
"||||||66|666||||11||||||||||6666ggg|11616|6g||||66",
"8]|66|66|66y818y^21]]1|1||||66]2^2]1}]81|g611}g|]2",
"wq]1666]]1]r&^HEKH2&wy11|11|]]{EEE&88q&81111g111qE",
".+w{]6]&u@^Db+fLLfIeeu]]]@2]q{+BLlJ<{DD@mu&]6]q&+B",
"v.vem]2eME@D..,,,,vvBNm]@I{@K..C,,,A.vD@IMe^1^+!A,"};
