/* XPM */
static char *Ground[] = {
/* columns rows colors chars-per-pixel */
"50 50 229 2 ",
"   c #5DB36F",
".  c #5BB76F",
"X  c #5FB56D",
"o  c #5DB76D",
"O  c #5FB76C",
"+  c #5FB66D",
"@  c #5EB76D",
"#  c #5DB56E",
"$  c #5CB46F",
"%  c #5DB46F",
"&  c #5EB56E",
"*  c #5EB46F",
"=  c #5CB66E",
"-  c #5DB76E",
";  c #5EB66E",
":  c #5FB96B",
">  c #5FBA6B",
",  c #5BB86F",
"<  c #5DB96D",
"1  c #5FB86C",
"2  c #5EB96C",
"3  c #5FB96C",
"4  c #5EB86D",
"5  c #5EB96D",
"6  c #5EBA6C",
"7  c #5CB86E",
"8  c #4DA77F",
"9  c #4FA67E",
"0  c #4FA77E",
"q  c #4FAE7B",
"w  c #4EAF7B",
"e  c #4EA97D",
"r  c #4FA97D",
"t  c #4EAA7D",
"y  c #4FAA7D",
"u  c #4EAD7C",
"i  c #4FAD7C",
"p  c #4EAF7C",
"a  c #57AE74",
"s  c #57AE75",
"d  c #55AC77",
"f  c #56AD76",
"g  c #55AE76",
"h  c #55AF76",
"j  c #54AF77",
"k  c #55AF77",
"l  c #56AE76",
"z  c #58AF74",
"x  c #53AB79",
"c  c #51AB7A",
"v  c #52AB7A",
"b  c #52AC79",
"n  c #53AC79",
"m  c #53AD79",
"M  c #51AF79",
"N  c #52AF79",
"B  c #50AD7B",
"V  c #52AC7A",
"C  c #50AF7A",
"Z  c #51AF7A",
"A  c #54AC78",
"S  c #54AE78",
"D  c #4EB07B",
"F  c #4FB07B",
"G  c #57B573",
"H  c #53B277",
"J  c #55B375",
"K  c #55B076",
"L  c #56B076",
"P  c #54B376",
"I  c #55B475",
"U  c #56B474",
"Y  c #5BB271",
"T  c #5BB371",
"R  c #58B173",
"E  c #5AB172",
"W  c #5BB172",
"Q  c #5AB073",
"!  c #59B272",
"~  c #59B372",
"^  c #58B273",
"/  c #5CB271",
"(  c #59B571",
")  c #5AB571",
"_  c #59B671",
"`  c #59B771",
"'  c #5AB770",
"]  c #5BB770",
"[  c #5AB671",
"{  c #58B572",
"}  c #59B572",
"|  c #58B573",
" . c #58B672",
".. c #59B672",
"X. c #58B074",
"o. c #50B079",
"O. c #51B079",
"+. c #51B179",
"@. c #52B079",
"#. c #52B179",
"$. c #53B278",
"%. c #52B279",
"&. c #50B07A",
"*. c #50B17A",
"=. c #51B17A",
"-. c #50B07B",
";. c #67BF63",
":. c #65BB66",
">. c #64BB67",
",. c #65BB67",
"<. c #66BB66",
"1. c #63BC67",
"2. c #63BD67",
"3. c #67BD64",
"4. c #66BC65",
"5. c #67BC65",
"6. c #66BD65",
"7. c #65BE65",
"8. c #66BE64",
"9. c #67BE64",
"0. c #66BF64",
"q. c #67BF64",
"w. c #66BE65",
"e. c #66BF65",
"r. c #65BC66",
"t. c #64BD66",
"y. c #65BD66",
"u. c #64BC67",
"i. c #64BD67",
"p. c #66BC66",
"a. c #64BE66",
"s. c #65BE66",
"d. c #6ABF61",
"f. c #69BF62",
"g. c #68BE63",
"h. c #69BE63",
"j. c #68BF63",
"k. c #6ABF62",
"l. c #68BD64",
"z. c #61B76B",
"x. c #62B76A",
"c. c #63B869",
"v. c #62B969",
"b. c #61BA69",
"n. c #61BB69",
"m. c #63BA68",
"M. c #63BB68",
"N. c #62BA69",
"B. c #62BB69",
"V. c #62B86A",
"C. c #63B86A",
"Z. c #61BA6A",
"A. c #60BB6A",
"S. c #60BA6B",
"D. c #61BC69",
"F. c #63BC68",
"G. c #62BD68",
"H. c #6FC45B",
"J. c #6FC55B",
"K. c #6FC65B",
"L. c #6BC25F",
"P. c #6BC35F",
"I. c #6FC35C",
"U. c #6EC25D",
"Y. c #6FC25D",
"T. c #6EC35D",
"R. c #6FC35D",
"E. c #6CC15F",
"W. c #6EC15E",
"Q. c #6DC25E",
"!. c #6DC35E",
"~. c #6CC25F",
"^. c #6CC35F",
"/. c #6DC35F",
"(. c #6EC45C",
"). c #6FC45C",
"_. c #6EC55C",
"`. c #6FC55C",
"'. c #6EC45D",
"]. c #6CC45E",
"[. c #6DC45E",
"{. c #6CC45F",
"}. c #73C757",
"|. c #74C757",
" X c #73C857",
".X c #74C856",
"XX c #75C856",
"oX c #74C857",
"OX c #75C857",
"+X c #72C559",
"@X c #71C659",
"#X c #71C759",
"$X c #73C658",
"%X c #72C758",
"&X c #73C758",
"*X c #72C659",
"=X c #73C659",
"-X c #72C759",
";X c #71C55A",
":X c #70C45B",
">X c #70C55B",
",X c #71C55B",
"<X c #70C65A",
"1X c #71C65A",
"2X c #71C75A",
"3X c #70C65B",
"4X c #70C35C",
"5X c #70C45C",
"6X c #72C858",
"7X c #73C858",
"8X c #72C859",
"9X c #74C858",
"0X c #67C063",
"qX c #6BC060",
"wX c #6AC160",
"eX c #6BC160",
"rX c #6AC061",
"tX c #6BC061",
"yX c #6AC161",
"uX c #6AC260",
"iX c #6BC260",
"pX c #6BC360",
"aX c #6AC261",
"sX c #68C062",
"dX c #69C062",
"fX c #69C162",
"gX c #68C063",
"hX c #6CC060",
"jX c #6CC260",
/* pixels */
"w =.=.] sX8X'.] U >.sX] =.=.F F F =.=.F F U 0X8X].7 0X0XG =.F F p p -.=.=.=.] 0X6 $.] pX8XsX] =.=.=.",
"=.] i.0X@X8X@Xi.i.sXjX] ] 6 =.p F =.6 ] G 2.8X XK.L.].K.0X2.7 F p p U D.i.U ' pXsX0X0X@X9X@X0XD.' =.",
"6 sX@X@XoXoX8X8X$X$X@Xi.i.Y.6 6 . 2.L.;.i.@XoX X8XK. X X@XK.0X> 6 6 i.@X8X0Xi.8X8X@X@X8XoX9X@X@XsX6 ",
"'.@XoXoXoXoXoXoXoXoX|.@X@X@X'.'.].K.}.K.K.oXoXoX X X X X X X@XK.Y.5X@XoX9X@X5X9X9X9X9X9XoXoXoXoX8X'.",
"oXoXoXoXoXoXoXoXoXoXoXoXoXoXoXoX X X XoXoXoXoXoXoX XoXoX X X X XoXoXoXoXoXoXoXoX9XoX9X9XoXoXoXoX9X9X",
"oXoXoXoXoXoXoXoXoXoXoXoXoXoXoXoX X XoXoXoXoXoXoXoXoXoXoX X XoXoXoXoXoXoXoXoXoXoXoXoXoXoXoXoXoXoX9X9X",
"sX@XoXoXoXoXoXoXoXoXoXoXoXoXoXoX X X XoXoXoXoXoXoXoXoXoX XoXoXoXoXoXoXoXoXoXoXoXoXoXoXoXoXoXoX$X'.jX",
"z i.8XoXoXoXoXoXoXoXoXoXoXoXoXoX X X XoXoXoXoXoXoXoXoXoXoXoXoXoXoXoXoXoXoXoXoXoXoXoXoXoXoXoXoX9Xi.h ",
"x >.$XoXoXoXoXoXoXoXoXoXoXoXoXoX XXXoXoXoXoXoXoXoXoX XoXoXoXoXoXoXoXoXoXoXoXoXoXoXoXoXoXoXoX9X8Xu.c ",
"6 d.$X|.oXoXoXoXoXoXoXoXoXoXoXoX XXXoXXXoXoXoX XoXoXoX XoXoXoXoXoXoXoXoXoXoXoXoXoXoXoXoXoXoX9X@XsXS.",
"d.sX5X|.oXoX|.oXoX|.oXoXoXoXoX|.XX XoXoXoXoX XoXoXoXoXoXoXoXoXoXoXoXoXoXoXoXoXoXoXoXoXoXoXoX$XY.sXg.",
"z z C.@XoXoXoXoXoX|.oXoXoXoXoXoX.XXXoXoXoXoXoXoXoXoXoXoXoXoXoXoXoXoXoXoXoXoXoXoXoXoXoXoXoXoX$Xx.z z ",
"c z >.@X|.oX|.oXoXoXoXoXoXoXoXoX X XXX XoX XoXoXoXoXoXoXoXoX XoXoXoXoXoXoXoXoXoXoXoXoXoXoX|.$X>.z x ",
"Z N.@X$XoXoXoXoXoXoXoXoXoXoXoXoXXX XXX XoXoXoXoXoXoXoXoXoXoX XoXoXoXoXoXoXoXoXoXoXoXoXoXoXoX|.@XN.=.",
"=.N.4X|.oXoXoXoXoXoXoXoXoXoXoXoX X.X.X.XoXoXoXoXoX XoXoXoXoXoXoXoXoXoXoXoXoXoXoXoXoXoXoX9X|.$X4XS.=.",
"=.h N.Y.|.|.oXoXoXoXoXoXoXoXoXoX.X.X.X.XoXoXoXoXoX XoXoXoXoX XoXoXoXoXoXoXoXoXoXoXoXoXoX9X9XY.>.P B ",
"p t h N.@XoXoXoXoXoXoXoXoXoXoXoX.X.X.X.XoXoXoXoXoXoXoXoXoXoXoXoXoXoXoXoXoXoXoXoXoXoXoXoX$X5XN.h t D ",
"p p F T jX$XoXoXoXoXoXoXoXoXoXoX X.X X.XoXoXoX XoXoXoXoXoXoXoXoXoXoXoXoXoXoXoXoXoXoXoXoX9XY.W Z p D ",
"F =.] 2.@X@XoXoXoXoXoXoXoXoXoXoXXX X.X XoXoXoXoXoXoXoXoXoXoXoXoXoXoXoXoXoXoXoXoXoXoXoXoXoX$Xi.W F w ",
"F ] sX8XoXoXoXoXoXoXoXoXoXoXoXoX XXX XoXoXoXoXoXoXoXoXoXoXoXoXoXoXoXoXoXoXoXoXoXoXoXoXoXoXoX9XsX. =.",
"=.D.@X XoXoXoXoXoXoXoXoXoXoXoXoX XoXoXoXoXoXoXoXoXoXoXoXoXoXoXoXoXoXoXoXoXoXoXoXoXoXoXoXoXoXoX@XN.Z ",
"U sX8XoXoXoXoXoXoXoXoXoXoXoXoXoXoX XoXoXoXoXoXoXoXoXoXoXoXoXoXoXoXoXoXoXoXoXoXoXoXoXoXoXoXoXoX$X;.G ",
"0XpXoXoXoXoXoXoXoXoXoXoXoXoXoXoXoXoXoXoXoXoXoXoXoXoXoXoXoXoXoXoXoXoXoXoXoXoXoXoXoXoXoXoXoXoXoXoXK.;.",
"D.Y. XoXoXoXoXoXoXoXoX9XoXoXoXoX XoXoXoXoXoXoXoXoXoXoXoXoXoXoXoXoXoXoXoX|.oXoXoXoXoXoXoXoXoXoXoXY.N.",
"6 pX9XoXoXoXoX9XoXoXoX XoXoXoXoXoX8XoXoXoXoXoXoXoXoXoXoXoXoXoXoXoXoXoXoXoXoXoXoXoXoXoXoXoXoXoX|.sX> ",
"sX@X|.9XoXoXoX$XoXoXoXoXoXoX9XoXoXoXoXoXoXoXoXoXoXoXoXoXoXoXoXoXoXoXoXoXoXoXoXoXoXoXoXoXoXoXoXoXK.L.",
"8X9X$X9XoXoXoXoXoXoXoXoXoXoX9XoXoXoXoXoXoXoXoXoXoXoXoXoXoXoXoXoXoXoXoXoXoXoXoXoXoXoXoXoX|.oX|.$X@X X",
"0Xi.jX$X$X|.oXoXoXoXoXoX9XoXoXoXoXoXoXoXoX XoXoXoXoXoXoXoXoXoXoXoXoXoXoX|.oXoXoXoXoXoX|.|.|.@XhXi.i.",
"x h z.$X|.|.oXoXoXoXoXoXoXoXoXoXoXoXoXoXoX XoXoXoXoXoXoXoXoXoXoXoXoXoXoXoXoXoXoXoXoXoXoX|.$X@X>.h x ",
"c ] g.$XoXoXoXoXoXoXoXoXoXoXoXoXoXoXoXoXoXoXoXoXoXoXoXoXoXoXoXoXoXoXoXoXoXoXoXoXoXoXoXoX|.|.@Xd.z c ",
"=.D.$X$XoXoXoXoXoXoXoXoXoXoXoXoXoXoXoXoXoXoXoXoXoXoXoXoXoXoXoXoXoXoXoXoXoXoXoXoXoXoXoXoXoX|.|.@Xi.=.",
"=.- sX$XoXoXoX|.oXoXoXoXoXoXoXoXoXoXoXoXoXoXoXoXoXoXoXoXoXoXoXoXoXoXoXoXoXoXoXoXoXoXoXoX|.oX|.Y.- =.",
"Z A ] jX@XoXoXoXoXoXoXoXoXoXoXoXoXoXoXoXoXoXoXoXoXoXoXoXoXoXoXoXoXoXoXoXoXXXoXoXoXoXoXoX$X9XjXW x p ",
"B p x - '.oXoXoXoXoXoXoXoXoXoXoXoXoXoXoXoXoXoXoXoXoXoXoXoXoXoXoXoXoXoXoXoXoXoXoXoXoXoXoX$XY.- A p F ",
"p p A z.Y.oXoXoXoXoXoXoXoXoXoXoXoXoXoXoXoXoXoXoXoXoXoXoXoXoXoXoXoXoXoXoXoXoXoXoXoXoXoXoX$X4Xz.Z F F ",
"Z $.z.d.@XoXoXoXoXoXoXoXoXoXoXoXoXoXoXoXoXoXoXoXoXoXoXoXoXoXoXoXoXoXoXoXoXoXoXoXoXoXoXoX9X$Xd.S.P p ",
"=.] d.|.oXoXoXoXoXoXoXoXoXoXoXoXoXoXoXoXoXoXoXoXoXoXoXoXoXoXoXoXoXoXoXoXoXoXoXoXoXoXoXoX9XoX|.jX] p ",
"p ] i.}.oXoXoXoXoXoXoXoXoXoXoXoXoXoXoX|.oXoXoXoX|.oXoXoXoXoXoXoXoXoXoXoXoXoXoXoXoXoXoXoX9X$X$Xg.] Z ",
"T T N.@XoXoXoXoXoXoXoXoXoXoXoXoXoXoXoXoXoXoX|.oXoXoXoXoXoXoXoXoXoXoX|.oXoXoXoXoXoXoXoXoXoX$X$XC.T ] ",
"sXY.sX8XoXoXoXoXoXoXoXoXoXoXoXoXoXoXoXoXoX|.|.oXoX|.oXoXoXoXoXoXoXoXoXoXoXoXoXoXoXoXoXoX|.$X$XjXjX'.",
"$X9X9XoXoXoXoXoXoXoXoXoXoXoXoXoXoXoX|.oXoX|.oXoXoXoXoXoXoXoXoXoXoXoXoXoXoXoXoXoXoXoXoXoXoXoXoX9X@X@X",
"i.'.$XoXoXoXoXoXoXoXoXoXoXoXoXoXoXoXoXoXoXoXoXoXoXoXoXoXoXoXoXoXoXoXoXoXoXoXoXoXoXoXoXoXoXoXXX$X'.g.",
"S.sX$XoXoXoXoXoXoXoXoXoXoXoXoXoXoXoXoX|.oXoX|.oXoXoXoXoXoXoXoXoXoXoXoXoXoXoXoXoXoXoXoXoXoXoXoX$Xd.6 ",
"jX@X$X9XoXoXoXoXoXoXoXoXoXoXoXoXoXoXoXoXoXoXoXoXoXoXoXoXoXoXoXoXoXoXoXoXoXoXoXoXoXoXoXoXoXoXoXoX'.Y.",
"oXoX9X$XoXoX|.|.oXoX|.|.oXoXoXoX9XoXoXoXoXoXoXoXoXoXoXoX|.|.|.|.oXoXoXoX|.|.oXoXoXoX|.|.oXoXoXoX|.oX",
"oXoXoXoXoXoX|.|.oX|.|.|.oXoXoXoX$X$XoXoXoXoXoXoXoXoXoXoX|.|.|.|.XXXXXXoX$X$X|.$X|.oX|.XXoXoXoXoX|.|.",
"5X@XoX|.|.oX|.|.oX|.|.4X5X$X5X4XjXY.$X@X@X$XoX$XoXoXoXoX|.|.@XY.jXY.@X$X9X@X5X$XoXXX|.$X$X9XXXoX@XY.",
"N.g.@X$X|.|.|.@X@X$X@XC.>.jXz.W ^ z.Y.>.N.4X$X$XoX$X$XoX@X@Xi.W W W >.5X5Xg.>.5X$X$X$X$XXX$X$X$Xg.W ",
"=.] N.i.@X|.@X>.x.sXjXT z ] x 8 8 x - h h x.@X@X@XsXY.@Xg.i.] t 8 c A D.i.T T sXd.x.>.@X|.@Xg.>.] t ",
"Z =.Z h d.@XY.h 9 W sXT =.=.p p p p Z Z t d d.@XsX- i.sX^ =.=.D p p p B =.Z T sX- 9 h jX$XjX] $.B p "
};
