/* XPM */
static char * player_xpm[] = {
"50 50 176 2",
"  	c #4EAF7B",
". 	c #51B17A",
"+ 	c #5BB770",
"@ 	c #68C062",
"# 	c #72C859",
"$ 	c #6EC45D",
"% 	c #56B474",
"& 	c #64BB67",
"* 	c #4FB07B",
"= 	c #67C063",
"- 	c #6CC45E",
"; 	c #5CB86E",
"> 	c #57B573",
", 	c #4EAF7C",
"' 	c #50B07B",
") 	c #5EBA6C",
"! 	c #53B278",
"~ 	c #6BC360",
"{ 	c #64BD67",
"] 	c #71C659",
"^ 	c #6CC260",
"/ 	c #63BD67",
"( 	c #73C857",
"_ 	c #6FC65B",
": 	c #6BC25F",
"< 	c #61BC69",
"[ 	c #5AB770",
"} 	c #74C858",
"| 	c #74C857",
"1 	c #73C658",
"2 	c #6FC25D",
"3 	c #5BB76F",
"4 	c #67BF63",
"5 	c #5FBA6B",
"6 	c #74C757",
"7 	c #73C757",
"8 	c #70C45C",
"9 	c #58AF74",
"0 	c #55AF76",
"a 	c #53AB79",
"b 	c #75C856",
"c 	c #64BC67",
"d 	c #51AB7A",
"e 	c #6ABF61",
"f 	c #60BA6B",
"g 	c #68BE63",
"h 	c #63B86A",
"i 	c #3B2322",
"j 	c #362020",
"k 	c #62B76A",
"l 	c #442525",
"m 	c #5C2C2D",
"n 	c #622E30",
"o 	c #663031",
"p 	c #602D2F",
"q 	c #51AF7A",
"r 	c #62BA69",
"s 	c #372921",
"t 	c #923F40",
"u 	c #9A4243",
"v 	c #964142",
"w 	c #A74648",
"x 	c #B34A4C",
"y 	c #AF484A",
"z 	c #532A2A",
"A 	c #311F1F",
"B 	c #70C35C",
"C 	c #405424",
"D 	c #3A2B22",
"E 	c #A34345",
"F 	c #A13F41",
"G 	c #AB4347",
"H 	c #BE4E50",
"I 	c #C45052",
"J 	c #BB4D4F",
"K 	c #446D25",
"L 	c #478426",
"M 	c #3B3A22",
"N 	c #AD5759",
"O 	c #AA5A5C",
"P 	c #9D4A4C",
"Q 	c #A64F51",
"R 	c #A34A4B",
"S 	c #A94648",
"T 	c #8D4545",
"U 	c #4E2829",
"V 	c #54B376",
"W 	c #50AD7B",
"X 	c #4EAA7D",
"Y 	c #427024",
"Z 	c #478826",
"` 	c #5E252A",
" .	c #D4A0A1",
"..	c #CBB2B4",
"+.	c #6E494A",
"@.	c #896969",
"#.	c #DBBFC0",
"$.	c #B67072",
"%.	c #8C3C3E",
"&.	c #7C3839",
"*.	c #371B21",
"=.	c #4EB07B",
"-.	c #5BB371",
";.	c #426424",
">.	c #D1C1C1",
",.	c #D7D4D4",
"'.	c #5B4B4B",
").	c #827575",
"!.	c #EFE8E8",
"~.	c #CA9394",
"{.	c #6C3233",
"].	c #843A3B",
"^.	c #5BB172",
"/.	c #E4BEBF",
"(.	c #3E5523",
"_.	c #4D4B24",
":.	c #63423B",
"<.	c #7F7575",
"[.	c #2F1E1E",
"}.	c #3F691F",
"|.	c #44332D",
"1.	c #AF9CA0",
"2.	c #674B4B",
"3.	c #866F6F",
"4.	c #E4D2D3",
"5.	c #C48889",
"6.	c #442C29",
"7.	c #885358",
"8.	c #B16B6D",
"9.	c #985152",
"0.	c #3B3222",
"a.	c #742F33",
"b.	c #783537",
"c.	c #743435",
"d.	c #4B2728",
"e.	c #492627",
"f.	c #85373A",
"g.	c #9B3E40",
"h.	c #AE5350",
"i.	c #BE5A57",
"j.	c #C45D59",
"k.	c #BA7565",
"l.	c #CF9A7E",
"m.	c #E5AA8A",
"n.	c #ECAE8E",
"o.	c #EEB08F",
"p.	c #A17461",
"q.	c #402826",
"r.	c #C58B73",
"s.	c #E2C398",
"t.	c #FEDBAA",
"u.	c #AE8E72",
"v.	c #6CC060",
"w.	c #61B76B",
"x.	c #F7D2A4",
"y.	c #FCD4A6",
"z.	c #CDB089",
"A.	c #BCA07E",
"B.	c #B04649",
"C.	c #B99376",
"D.	c #8C6A58",
"E.	c #FCCFA3",
"F.	c #AA846C",
"G.	c #5DB76E",
"H.	c #B9635B",
"I.	c #804340",
"J.	c #826151",
"K.	c #E3BD94",
"L.	c #D98B77",
"M.	c #92534C",
"N.	c #54AC78",
"O.	c #C14F51",
"P.	c #58B273",
"Q.	c #4DA77F",
"R.	c #4FA67E",
"S.	c #55AC77",
"  . . + @ # $ + % & @ + . . * * * . . * * % = # - ; = = > . * * , , ' . . . + = ) ! + ~ # @ + . . . ",
". + { = ] # ] { { @ ^ + + ) . , * . ) + > / # ( _ : - _ = / ; * , , % < { % [ ~ @ = = ] } ] = < [ . ",
") @ ] ] | | # # 1 1 ] { { 2 ) ) 3 / : 4 { ] | ( # _ ( ( ] _ = 5 ) ) { ] # = { # # ] ] # | } ] ] @ ) ",
"$ ] | | | | | | | | 6 ] ] ] $ $ - _ 7 _ _ | | | ( ( ( ( ( ( ] _ 2 8 ] | } ] 8 } } } } } | | | | # $ ",
"| | | | | | | | | | | | | | | | ( ( ( | | | | | | ( | | ( ( ( ( | | | | | | | | } | } } | | | | } } ",
"| | | | | | | | | | | | | | | | ( ( | | | | | | | | | | ( ( | | | | | | | | | | | | | | | | | | } } ",
"@ ] | | | | | | | | | | | | | | ( ( ( | | | | | | | | | ( | | | | | | | | | | | | | | | | | | 1 $ ^ ",
"9 { # | | | | | | | | | | | | | ( ( ( | | | | | | | | | | | | | | | | | | | | | | | | | | | | } { 0 ",
"a & 1 | | | | | | | | | | | | | ( b | | | | | | | | ( | | | | | | | | | | | | | | | | | | | } # c d ",
") e 1 6 | | | | | | | | | | | | ( b | b | | | ( | | | ( | | | | | | | | | | | | | | | | | | } ] @ f ",
"e @ 8 6 | | 6 | | 6 | | | | | 6 b ( | | | | ( | | | | | | | | | | | | | | | | | | | | | | | 1 2 @ g ",
"9 9 h ] | | | | | 6 | | | | | i j j j j j j j j j j j j j j j j j j j | | | | | | | | | | | 1 k 9 9 ",
"d 9 & ] 6 | 6 | | | | | | | | i l m m m m m m n o o n o o o o o o o p | | | | | | | | | | 6 1 & 9 a ",
"q r ] 1 | | | | | | | | | s s j m t u v v v u w x x x x y y x x x x v z A | | | | | | | | | 6 ] r . ",
". r B 6 | | | | | | | | s C C D p u E F w E E G x H I I J y y y y I w z A | | | | | | | } 6 1 B f . ",
". 0 r 2 6 6 | | | | | | D K L M p u N O v P O Q R x x w E E E E w S T U A | | | | | | | } } 2 & V W ",
", X 0 r ] | | | | | | | s Y Z M ` R  ...+.@.#.$.y J t p %.x x x x &.U i *.| | | | | | | 1 8 r 0 X =.",
", , * -.^ 1 | | | | | | s C ;.D ` y >.,.'.).!.~.E x v {.t I H I x ].m i j | | | | | | | } 2 ^.q , =.",
"* . + / ] ] | | | | | | i D D s ` P /.,.'.).!.~.E x J x J J J J J J v U A | | | | | | | | 1 { ^.*   ",
"* + @ # | | | | | | | | | *.D (._.:...,.'.<.!.~.E x I J J J H J J I E z [.| | | | | | | | | } @ 3 . ",
". < ] ( | | | | | | | | | *.M L }.|.1.>.2.3.4.5.E x H J H H H H H I E z [.| | | | | | | | | | ] r q ",
"% @ # | | | | | | | | | | *.M L K 6.7.8.v 9.$.N E x H H H H H H H I E z [.| | | | | | | | | | 1 4 > ",
"= ~ | | | | | | | | | | | *.0.;.(.s a.F E E %.F G y J J E v %.v v v ].l A | | | | | | | | | | | _ 4 ",
"< 2 ( | | | | | | | | } | j s D D l b.E E E E E E E y x c.l l l d.l l i i | | | | | | | | | | | 2 r ",
") ~ } | | | | } | | | ( | i *.*.e.{.f.E E w G G G w g.b.m | | | | | A j | | | | | | | | | | | 6 @ 5 ",
"@ ] 6 } | | | 1 | | | | | i j i p v S h.i.j.j.j.j.j.T l | | | | | | | | | | | | | | | | | | | | _ : ",
"# } 1 } | | | | | | | | | | } j p u k.l.m.n.n.o.o.o.p.q.| | | | | | | | | | | | | | | | 6 | 6 1 ] ( ",
"= { ^ 1 1 6 | | | | | | } | | A m P r.s.t.t.t.t.t.t.u.6.| | | | | | | | 6 | | | | | | 6 6 6 ] v.{ { ",
"a 0 w.1 6 6 | | | | | | | | | i m u r.s.x.t.y.t.t.t.u.6.| | | | | | | | | | | | | | | | 6 1 ] & 0 a ",
"d + g 1 | | | | | | | | | | l c.f.P r.z.u.A.t.t.t.t.u.|.| | | | | | | | | | | | | | | | 6 6 ] e 9 d ",
". < 1 1 | | | | | | | | i s m E B.R r.C.:.D.s.y.y.E.F.6.| | | | | | | | | | | | | | | | | 6 6 ] { . ",
". G.@ 1 | | | 6 | | | | i {.u S S E i.H.v I.J.C.K.L.M.l | | | | | | | | | | | | | | | | 6 | 6 2 G.. ",
"q N.+ ^ ] | | | | | | | i b.u %.%.E x H O.f.l D.L.j.f.i | | | | | | | | | b | | | | | | 1 } ^ ^.a , ",
"W , a G.$ | | | | | | | i l d.l {.u x H H ].l :.h.H ].l | | | | | | | | | | | | | | | | 1 2 G.N., * ",
", , N.w.2 | | | | | | | i *.[.[.z c.v x I %.l z a.f.{.i | | | | | | | | | | | | | | | | 1 B w.q * * ",
"q ! w.e ] | | | | | | | | | | | | l c.E y ].i i i i i | | | | | | | | | | | | | | | | | } 1 e f V , ",
". + e 6 | | | | | | | | | | | | | j d.m o z i *.| | | | | | | | | | | | | | | | | | | | } | 6 ^ + , ",
", + { 7 | | | | | | | | | | | | | s j j A *.i | 6 | | | | | | | | | | | | | | | | | | | } 1 1 g + q ",
"-.-.r ] | | | | | | | | | | | | | | | | | | 6 | | | | | | | | | | | 6 | | | | | | | | | | 1 1 h -.+ ",
"@ 2 @ # | | | | | | | | | | | | | | | | | 6 6 | | 6 | | | | | | | | | | | | | | | | | | 6 1 1 ^ ^ $ ",
"1 } } | | | | | | | | | | | | | | | 6 | | 6 | | | | | | | | | | | | | | | | | | | | | | | | | } ] ] ",
"{ $ 1 | | | | | | | | | | | | | | | | | | | | | | | | | | | | | | | | | | | | | | | | | | | b 1 $ g ",
"f @ 1 | | | | | | | | | | | | | | | | 6 | | 6 | | | | | | | | | | | | | | | | | | | | | | | | 1 e ) ",
"^ ] 1 } | | | | | | | | | | | | | | | | | | | | | | | | | | | | | | | | | | | | | | | | | | | | $ 2 ",
"| | } 1 | | 6 6 | | 6 6 | | | | } | | | | | | | | | | | 6 6 6 6 | | | | 6 6 | | | | 6 6 | | | | 6 | ",
"| | | | | | 6 6 | 6 6 6 | | | | 1 1 | | | | | | | | | | 6 6 6 6 b b b | 1 1 6 1 6 | 6 b | | | | 6 6 ",
"8 ] | 6 6 | 6 6 | 6 6 B 8 1 8 B ^ 2 1 ] ] 1 | 1 | | | | 6 6 ] 2 ^ 2 ] 1 } ] 8 1 | b 6 1 1 } b | ] 2 ",
"r g ] 1 6 6 6 ] ] 1 ] h & ^ w.^.P.w.2 & r B 1 1 | 1 1 | ] ] { ^.^.^.& 8 8 g & 8 1 1 1 1 b 1 1 1 g ^.",
". + r { ] 6 ] & k @ ^ -.9 + a Q.Q.a G.0 0 k ] ] ] @ 2 ] g { + X Q.d N.< { -.-.@ e k & ] 6 ] g & + X ",
"q . q 0 e ] 2 0 R.^.@ -.. . , , , , q q X S.e ] @ G.{ @ P.. . =., , , W . q -.@ G.R.0 ^ 1 ^ + ! W , "};
