/* XPM */
static char * wall2_xpm[] = {
"50 50 805 2",
"  	c #4EAF7B",
". 	c #51B17A",
"+ 	c #5BB770",
"@ 	c #68C062",
"# 	c #72C859",
"$ 	c #6EC45D",
"% 	c #56B474",
"& 	c #64BB67",
"* 	c #4FB07B",
"= 	c #67C063",
"- 	c #6CC45E",
"; 	c #5CB86E",
"> 	c #57B573",
", 	c #4EAF7C",
"' 	c #50B07B",
") 	c #5EBA6C",
"! 	c #53B278",
"~ 	c #6BC360",
"{ 	c #64BD67",
"] 	c #71C659",
"^ 	c #6CC260",
"/ 	c #63BD67",
"( 	c #73C857",
"_ 	c #6FC65B",
": 	c #6BC25F",
"< 	c #61BC69",
"[ 	c #5AB770",
"} 	c #74C858",
"| 	c #74C857",
"1 	c #73C658",
"2 	c #6FC25D",
"3 	c #5BB76F",
"4 	c #62BC67",
"5 	c #69C060",
"6 	c #65BD63",
"7 	c #62BB67",
"8 	c #6EC45A",
"9 	c #70C659",
"0 	c #6FC65A",
"a 	c #6CC45C",
"b 	c #70C658",
"c 	c #6FC55A",
"d 	c #6EC55B",
"e 	c #5FBA6B",
"f 	c #74C757",
"g 	c #6BC35F",
"h 	c #6AC15D",
"i 	c #6ABF5C",
"j 	c #65BD5F",
"k 	c #69BF5D",
"l 	c #68BF5D",
"m 	c #69BF5C",
"n 	c #6CC25B",
"o 	c #70C559",
"p 	c #70C45C",
"q 	c #73C758",
"r 	c #6EC459",
"s 	c #66BD5D",
"t 	c #5DB661",
"u 	c #59B362",
"v 	c #5AB362",
"w 	c #58B362",
"x 	c #5BB462",
"y 	c #62BA5F",
"z 	c #6BC15B",
"A 	c #71C758",
"B 	c #72C857",
"C 	c #73C757",
"D 	c #6EC35A",
"E 	c #6DC25B",
"F 	c #6BC05B",
"G 	c #67BE5C",
"H 	c #5DB75D",
"I 	c #55B15E",
"J 	c #50AF5F",
"K 	c #52AF60",
"L 	c #55B061",
"M 	c #55B062",
"N 	c #53AF60",
"O 	c #51AE5F",
"P 	c #52B05F",
"Q 	c #5AB55E",
"R 	c #63BB5C",
"S 	c #6CC15B",
"T 	c #6EC35B",
"U 	c #72C658",
"V 	c #65BB5E",
"W 	c #61B860",
"X 	c #5FB760",
"Y 	c #5CB65E",
"Z 	c #58B35A",
"` 	c #53B257",
" .	c #51B155",
"..	c #52B156",
"+.	c #57B459",
"@.	c #5DB75C",
"#.	c #5FB85D",
"$.	c #5AB55A",
"%.	c #54B256",
"&.	c #52B056",
"*.	c #55B359",
"=.	c #5BB55D",
"-.	c #63BA5F",
";.	c #71C559",
">.	c #58AF74",
",.	c #65BC5D",
"'.	c #5AB460",
").	c #54B062",
"!.	c #54AF62",
"~.	c #56B25F",
"{.	c #57B457",
"].	c #59B64E",
"^.	c #59B74A",
"/.	c #5BB84B",
"(.	c #66BE51",
"_.	c #70C356",
":.	c #74C558",
"<.	c #69BF53",
"[.	c #5FBA4D",
"}.	c #59B74C",
"|.	c #57B654",
"1.	c #56B35D",
"2.	c #55AF63",
"3.	c #53AF63",
"4.	c #57B260",
"5.	c #60B85E",
"6.	c #6BC15A",
"7.	c #71C558",
"8.	c #55AF76",
"9.	c #53AB79",
"0.	c #5CB65C",
"a.	c #55B25A",
"b.	c #56B25C",
"c.	c #5AB45D",
"d.	c #62BC56",
"e.	c #63BD4F",
"f.	c #64BE4C",
"g.	c #68C04D",
"h.	c #79C854",
"i.	c #89D15B",
"j.	c #8ED45E",
"k.	c #7ECB57",
"l.	c #6DC350",
"m.	c #63BE4C",
"n.	c #64BE4D",
"o.	c #63BC54",
"p.	c #61B95A",
"q.	c #57B25C",
"r.	c #54B15B",
"s.	c #59B45C",
"t.	c #61B95D",
"u.	c #64BC67",
"v.	c #51AB7A",
"w.	c #6ABF61",
"x.	c #65BB5D",
"y.	c #5BB55E",
"z.	c #56B35A",
"A.	c #57B453",
"B.	c #5DB853",
"C.	c #65BD56",
"D.	c #6BC159",
"E.	c #6DC356",
"F.	c #6EC454",
"G.	c #71C653",
"H.	c #79C955",
"I.	c #8DD35C",
"J.	c #9EDD63",
"K.	c #A4E065",
"L.	c #93D65F",
"M.	c #7FCC58",
"N.	c #72C654",
"O.	c #6FC553",
"P.	c #6EC455",
"Q.	c #6CC258",
"R.	c #68BF58",
"S.	c #60BA54",
"T.	c #59B653",
"U.	c #55B358",
"V.	c #58B35E",
"W.	c #61B95E",
"X.	c #6AC05B",
"Y.	c #71C658",
"Z.	c #60BA6B",
"`.	c #6DC25A",
" +	c #66BC5C",
".+	c #5CB65D",
"++	c #56B356",
"@+	c #5EB950",
"#+	c #66BF4F",
"$+	c #6DC452",
"%+	c #72C756",
"&+	c #77C958",
"*+	c #80CD5A",
"=+	c #8DD35E",
"-+	c #A0DD65",
";+	c #AEE66A",
">+	c #B2E86B",
",+	c #A5E066",
"'+	c #94D760",
")+	c #83CF5B",
"!+	c #79CA58",
"~+	c #72C757",
"{+	c #70C554",
"]+	c #69C150",
"^+	c #61BC4F",
"/+	c #58B554",
"(+	c #55B25B",
"_+	c #5AB45C",
":+	c #62BA5D",
"<+	c #68BE63",
"[+	c #63B86A",
"}+	c #64BB5E",
"|+	c #5AB45F",
"1+	c #56B453",
"2+	c #5DB950",
"3+	c #67C051",
"4+	c #6EC453",
"5+	c #72C755",
"6+	c #75C857",
"7+	c #7ECC5A",
"8+	c #8FD45F",
"9+	c #A3DF65",
"0+	c #B0E76A",
"a+	c #B7EC6D",
"b+	c #B9ED6D",
"c+	c #B3E96B",
"d+	c #A8E267",
"e+	c #97D862",
"f+	c #83CE5B",
"g+	c #77CA58",
"h+	c #69C151",
"i+	c #61BC50",
"j+	c #58B551",
"k+	c #55B357",
"l+	c #58B35D",
"m+	c #60B85F",
"n+	c #6AC05C",
"o+	c #62B76A",
"p+	c #73C657",
"q+	c #65BC5E",
"r+	c #51AF61",
"s+	c #51B157",
"t+	c #57B64E",
"u+	c #61BC4C",
"v+	c #6CC352",
"w+	c #78CA58",
"x+	c #9FDD64",
"y+	c #B1E76A",
"z+	c #BCEF6E",
"A+	c #BCEF6F",
"B+	c #BBEE6E",
"C+	c #B4E96C",
"D+	c #A7E167",
"E+	c #94D761",
"F+	c #85CF5C",
"G+	c #7ACB59",
"H+	c #75C957",
"I+	c #73C756",
"J+	c #5AB84B",
"K+	c #53B354",
"L+	c #50AF5D",
"M+	c #56B163",
"N+	c #62B960",
"O+	c #6BC05C",
"P+	c #51AF7A",
"Q+	c #62BA69",
"R+	c #52AE64",
"S+	c #4CAC62",
"T+	c #50B056",
"U+	c #58B74C",
"V+	c #63BE4B",
"W+	c #6EC452",
"X+	c #76C958",
"Y+	c #7DCC59",
"Z+	c #8ED55E",
"`+	c #AEE569",
" @	c #B8EC6D",
".@	c #BDEF6F",
"+@	c #BEEF6F",
"@@	c #BEF06F",
"#@	c #BAED6E",
"$@	c #B3E86B",
"%@	c #A5E167",
"&@	c #95D861",
"*@	c #84CF5C",
"=@	c #68C14E",
"-@	c #5CB949",
";@	c #52B252",
">@	c #4DAE5E",
",@	c #4EAC65",
"'@	c #57B263",
")@	c #61B960",
"!@	c #70C35C",
"~@	c #50AD64",
"{@	c #4CAA64",
"]@	c #4DAC60",
"^@	c #51B154",
"/@	c #58B64B",
"(@	c #62BD4A",
"_@	c #6BC351",
":@	c #70C655",
"<@	c #81CD5B",
"[@	c #98D962",
"}@	c #AAE368",
"|@	c #B5EA6C",
"1@	c #BBED6E",
"2@	c #BCEE6E",
"3@	c #8AD25E",
"4@	c #78C958",
"5@	c #66BF4D",
"6@	c #5BB949",
"7@	c #53B350",
"8@	c #4DAE5B",
"9@	c #4CAB63",
"0@	c #4DAC65",
"a@	c #6FC459",
"b@	c #71C459",
"c@	c #68BD5D",
"d@	c #57B162",
"e@	c #4FAC62",
"f@	c #4DAC5E",
"g@	c #50AF57",
"h@	c #52B34E",
"i@	c #57B748",
"j@	c #5DBB47",
"k@	c #64BF4C",
"l@	c #6AC250",
"m@	c #71C655",
"n@	c #7CCC59",
"o@	c #8ED55F",
"p@	c #9FDD65",
"q@	c #74C856",
"r@	c #67C04D",
"s@	c #60BC49",
"t@	c #59B846",
"u@	c #54B54B",
"v@	c #50B153",
"w@	c #4EAE5C",
"x@	c #4CAB62",
"y@	c #54AF63",
"z@	c #54B376",
"A@	c #50AD7B",
"B@	c #4EAA7D",
"C@	c #61B96A",
"D@	c #6CC15D",
"E@	c #65BB5F",
"F@	c #55B063",
"G@	c #4FAD60",
"H@	c #50AF58",
"I@	c #53B34D",
"J@	c #54B547",
"K@	c #56B744",
"L@	c #5AB944",
"M@	c #5EBC48",
"N@	c #77C957",
"O@	c #80CD5B",
"P@	c #8ED45F",
"Q@	c #85D05C",
"R@	c #7ACA58",
"S@	c #69C14F",
"T@	c #61BD4A",
"U@	c #5BBA46",
"V@	c #57B844",
"W@	c #55B645",
"X@	c #53B44B",
"Y@	c #51B153",
"Z@	c #52AE62",
"`@	c #5FB662",
" #	c #6CC15C",
".#	c #72C55A",
"+#	c #4EB07B",
"@#	c #4FAF7B",
"##	c #59AE73",
"$#	c #63B668",
"%#	c #5FB266",
"&#	c #53AD65",
"*#	c #4FAD5F",
"=#	c #55B646",
"-#	c #56B742",
";#	c #57B842",
">#	c #5AB945",
",#	c #5FBC48",
"'#	c #66C04D",
")#	c #7DCC5A",
"!#	c #A2DF65",
"~#	c #82CE5B",
"{#	c #70C654",
"]#	c #5CBA47",
"^#	c #58B844",
"/#	c #55B644",
"(#	c #4EAE5B",
"_#	c #51AC64",
":#	c #5AB066",
"<#	c #66B863",
"[#	c #6DBF5F",
"}#	c #71C45B",
"|#	c #5BB172",
"1#	c #59B471",
"2#	c #5BAF6F",
"3#	c #5CAA6D",
"4#	c #53A56E",
"5#	c #4DA76A",
"6#	c #4EAC5F",
"7#	c #51B152",
"8#	c #59B943",
"9#	c #68C04E",
"0#	c #8DD45F",
"a#	c #79CA59",
"b#	c #62BE4B",
"c#	c #57B741",
"d#	c #55B643",
"e#	c #53B44C",
"f#	c #4EA966",
"g#	c #51A66D",
"h#	c #59A76E",
"i#	c #64B368",
"j#	c #6EBF5F",
"k#	c #5BB670",
"l#	c #65BA66",
"m#	c #62B16A",
"n#	c #56A172",
"o#	c #4C9C73",
"p#	c #4AA46C",
"q#	c #4DAB60",
"r#	c #6CC351",
"s#	c #72C655",
"t#	c #90D55F",
"u#	c #9FDE65",
"v#	c #A4E066",
"w#	c #75C858",
"x#	c #6FC453",
"y#	c #5CBA46",
"z#	c #57B841",
"A#	c #53B44D",
"B#	c #4CA668",
"C#	c #4B9F70",
"D#	c #519C74",
"E#	c #5FAB6D",
"F#	c #6BBB62",
"G#	c #61BB69",
"H#	c #6CBF5F",
"I#	c #61AE6B",
"J#	c #539E74",
"K#	c #499975",
"L#	c #49A26C",
"M#	c #91D660",
"N#	c #86D05C",
"O#	c #4BA568",
"P#	c #499C72",
"Q#	c #4D9876",
"R#	c #5CA86F",
"S#	c #6ABA63",
"T#	c #73C659",
"U#	c #67BF63",
"V#	c #6DC15F",
"W#	c #62AF6B",
"X#	c #7BCB59",
"Y#	c #67C14E",
"Z#	c #4E9876",
"`#	c #5DA96F",
" $	c #6ABB63",
".$	c #6AC261",
"+$	c #6FC15D",
"@$	c #49A26B",
"#$	c #6EC553",
"$$	c #6FC554",
"%$	c #6DC352",
"&$	c #5DBA46",
"*$	c #4A9D72",
"=$	c #4E9976",
"-$	c #6EC15E",
";$	c #6EC15D",
">$	c #62AE6B",
",$	c #4CAB61",
"'$	c #54B548",
")$	c #59B945",
"!$	c #71C755",
"~$	c #67C04E",
"{$	c #57B743",
"]$	c #55B546",
"^$	c #52B34F",
"/$	c #4EAD5C",
"($	c #6FC15E",
"_$	c #4CAA63",
":$	c #4FAF59",
"<$	c #52B350",
"[$	c #54B549",
"}$	c #58B846",
"|$	c #61BC49",
"1$	c #5FBB48",
"2$	c #5CBB47",
"3$	c #6BC250",
"4$	c #5AB946",
"5$	c #55B647",
"6$	c #50B055",
"7$	c #4DAC5F",
"8$	c #4AA569",
"9$	c #499D72",
"0$	c #70C55A",
"a$	c #6FC05D",
"b$	c #549F73",
"c$	c #4A9A74",
"d$	c #49A26D",
"e$	c #4AA866",
"f$	c #4CAC61",
"g$	c #52B251",
"h$	c #56B648",
"i$	c #5EBB47",
"j$	c #5BB945",
"k$	c #64BE4B",
"l$	c #59B944",
"m$	c #61BD49",
"n$	c #58B746",
"o$	c #53B44E",
"p$	c #50B057",
"q$	c #4BAA64",
"r$	c #4AA56B",
"s$	c #4A9E72",
"t$	c #4F9A75",
"u$	c #5DA96E",
"v$	c #6BBB63",
"w$	c #73C759",
"x$	c #66B567",
"y$	c #5BA76F",
"z$	c #51A071",
"A$	c #4CA26E",
"B$	c #4AA46B",
"C$	c #4AA867",
"D$	c #51B055",
"E$	c #55B549",
"F$	c #57B742",
"G$	c #58B843",
"H$	c #59B844",
"I$	c #6AC14F",
"J$	c #5BBA45",
"K$	c #58B944",
"L$	c #57B843",
"M$	c #56B645",
"N$	c #4EAD5D",
"O$	c #4AA865",
"P$	c #4AA56A",
"Q$	c #4BA36D",
"R$	c #4FA170",
"S$	c #56A371",
"T$	c #62B06A",
"U$	c #6DBE60",
"V$	c #6ABF62",
"W$	c #6CBC61",
"X$	c #64B367",
"Y$	c #5BAA6C",
"Z$	c #51A270",
"`$	c #4BA06F",
" %	c #49A36B",
".%	c #4BA964",
"+%	c #54B44A",
"@%	c #55B742",
"#%	c #65BF4C",
"$%	c #62BD4B",
"%%	c #5DBA47",
"&%	c #49A669",
"*%	c #49A06F",
"=%	c #4EA171",
"-%	c #57A66F",
";%	c #62B069",
">%	c #70C25C",
",%	c #74C658",
"'%	c #6CC060",
")%	c #61B66B",
"!%	c #71C45A",
"~%	c #64B267",
"{%	c #55A171",
"]%	c #4C9B73",
"^%	c #49A06E",
"/%	c #4BA864",
"(%	c #56B743",
"_%	c #57B746",
":%	c #59B845",
"<%	c #5AB844",
"[%	c #56B644",
"}%	c #4CAB60",
"|%	c #49A46B",
"1%	c #499B73",
"2%	c #519E73",
"3%	c #5EAC6C",
"4%	c #6BBC61",
"5%	c #67B666",
"6%	c #57A172",
"7%	c #4D9A74",
"8%	c #499F6F",
"9%	c #53B34E",
"0%	c #52B250",
"a%	c #55B547",
"b%	c #56B741",
"c%	c #54B44B",
"d%	c #4BA963",
"e%	c #499974",
"f%	c #529D74",
"g%	c #61AD6C",
"h%	c #6EC05E",
"i%	c #71C35B",
"j%	c #67B766",
"k%	c #57A373",
"l%	c #4D9C75",
"m%	c #499F70",
"n%	c #4AA669",
"o%	c #4BA965",
"p%	c #53B44A",
"q%	c #55B741",
"r%	c #4FAE5A",
"s%	c #4FB058",
"t%	c #4BAA62",
"u%	c #4AA767",
"v%	c #49A16D",
"w%	c #529F74",
"x%	c #61AF6C",
"y%	c #5DB76E",
"z%	c #71C45C",
"A%	c #68B966",
"B%	c #58A873",
"C%	c #4D9F76",
"D%	c #4A9E73",
"E%	c #49A26E",
"F%	c #49A46A",
"G%	c #4DAD5E",
"H%	c #52B24F",
"I%	c #51B054",
"J%	c #4FAF5A",
"K%	c #54B54A",
"L%	c #51B252",
"M%	c #4BAB62",
"N%	c #4CAC5F",
"O%	c #4FAF58",
"P%	c #53B34F",
"Q%	c #4BAA63",
"R%	c #4AA668",
"S%	c #4A9C76",
"T%	c #54A474",
"U%	c #61B26C",
"V%	c #6FC25E",
"W%	c #54AC78",
"X%	c #6EC35D",
"Y%	c #68BD66",
"Z%	c #59AF73",
"`%	c #4FA578",
" &	c #4B9E78",
".&	c #499C74",
"+&	c #4DAC5D",
"@&	c #4EAE5A",
"#&	c #56B643",
"$&	c #4AA965",
"%&	c #4AAA64",
"&&	c #4CA179",
"*&	c #55AB75",
"=&	c #62B76C",
"-&	c #6FC35E",
";&	c #6BC261",
">&	c #69BF66",
",&	c #5AB473",
"'&	c #51AA79",
")&	c #4CA27A",
"!&	c #4A9C78",
"~&	c #49A16E",
"{&	c #4AA36C",
"]&	c #4AA46A",
"^&	c #4AA568",
"/&	c #4AA966",
"(&	c #4AAA63",
"_&	c #4DAD5D",
":&	c #51B253",
"<&	c #49A966",
"[&	c #4AA36B",
"}&	c #499F71",
"|&	c #4A9D76",
"1&	c #4B9E79",
"2&	c #4DA67A",
"3&	c #56B076",
"4&	c #63BB6C",
"5&	c #6FC45E",
"6&	c #61B76B",
"7&	c #6CC061",
"8&	c #69C066",
"9&	c #5BB673",
"0&	c #52AE79",
"a&	c #4EA77B",
"b&	c #4B9E77",
"c&	c #4A9C74",
"d&	c #49A36C",
"e&	c #49A769",
"f&	c #49A868",
"g&	c #4BAB61",
"h&	c #49A867",
"i&	c #49A768",
"j&	c #49A56B",
"k&	c #499C73",
"l&	c #4BA079",
"m&	c #4DA57B",
"n&	c #4FAB7B",
"o&	c #57B376",
"p&	c #63BC6B",
"q&	c #6AC164",
"r&	c #5EB870",
"s&	c #55B277",
"t&	c #50AD7A",
"u&	c #4EA97B",
"v&	c #4CA17A",
"w&	c #4B9A79",
"x&	c #4A9679",
"y&	c #499778",
"z&	c #499B75",
"A&	c #49A070",
"B&	c #49A56A",
"C&	c #49A569",
"D&	c #49A668",
"E&	c #4BA766",
"F&	c #49A36D",
"G&	c #499D73",
"H&	c #499877",
"I&	c #4A9779",
"J&	c #4A9879",
"K&	c #4B9F7A",
"L&	c #4FAC7A",
"M&	c #52B079",
"N&	c #5AB673",
"O&	c #65BD69",
"P&	c #70C55D",
"Q&	c #72C759",
"R&	c #6EC35F",
"S&	c #66BE68",
"T&	c #56B376",
"U&	c #4DA27B",
"V&	c #4C9F7B",
"W&	c #4C9E7A",
"X&	c #4A9D75",
"Y&	c #499D71",
"Z&	c #499D70",
"`&	c #499E73",
" *	c #4CA07B",
".*	c #53B178",
"+*	c #6BC163",
"@*	c #71C65B",
"#*	c #73C858",
"$*	c #72C65A",
"%*	c #6EC45F",
"&*	c #67BF67",
"**	c #53AF79",
"=*	c #51AC79",
"-*	c #50AA79",
";*	c #4FA87B",
">*	c #4DA37A",
",*	c #4A9977",
"'*	c #499777",
")*	c #4CA279",
"!*	c #4EA67B",
"~*	c #50A97A",
"{*	c #51AB79",
"]*	c #52AD79",
"^*	c #54B078",
"/*	c #5AB574",
"(*	c #64BC6B",
"_*	c #6CC262",
":*	c #71C55C",
"<*	c #5BB371",
"[*	c #6EC360",
"}*	c #5FB970",
"|*	c #5CB771",
"1*	c #57B475",
"2*	c #4FAA7B",
"3*	c #4B9C7B",
"4*	c #4B9A7B",
"5*	c #4B9B7B",
"6*	c #51AD7A",
"7*	c #55B377",
"8*	c #5AB573",
"9*	c #5CB772",
"0*	c #6BC263",
"a*	c #72C65B",
"b*	c #68BF67",
"c*	c #61BB6D",
"d*	c #57B476",
"e*	c #50AE79",
"f*	c #4FA97B",
"g*	c #4FA87A",
"h*	c #4EA77A",
"i*	c #4EA67A",
"j*	c #50AC7A",
"k*	c #55B177",
"l*	c #5DB871",
"m*	c #6AC065",
"n*	c #6DC261",
"o*	c #69C065",
"p*	c #60B96F",
"q*	c #58B374",
"r*	c #59B374",
"s*	c #59B474",
"t*	c #5DB771",
"u*	c #72C75A",
"v*	c #66BE69",
"w*	c #66BD69",
"x*	c #68BF66",
"y*	c #75C856",
"z*	c #70C55C",
"A*	c #58B273",
"B*	c #4DA77F",
"C*	c #4FA67E",
"D*	c #55AC77",
"  . . + @ # $ + % & @ + . . * * * . . * * % = # - ; = = > . * * , , ' . . . + = ) ! + ~ # @ + . . . ",
". + { = ] # ] { { @ ^ + + ) . , * . ) + > / # ( _ : - _ = / ; * , , % < { % [ ~ @ = = ] } ] = < [ . ",
") @ ] ] | | # # 1 1 ] { { 2 ) ) 3 4 5 6 7 8 ] 9 0 a 9 b c d = e ) ) { ] # = { # # ] ] # | } ] ] @ ) ",
"$ ] | | | | | | | | f ] ] ] $ $ g h i j j k k k l l l m n o ] _ 2 p ] | } ] p } } } } } | | | | # $ ",
"| | | | | | | | | | | | | | | q r s t u u v v v v w u x y z A B | | | | | | | | } | } } | | | | } } ",
"| | | | | | | | | | | C ] D E F G H I J J K L M N O J P Q R F S T o q | | | | | | | | | | | | | } } ",
"@ ] | | | | | | | | | U E V W X Y Z `  ...+.@.#.$.%. .&.*.=.X X -.m ;.C | | | | | | | | | | | 1 $ ^ ",
">.{ # | | | | | | ( U D ,.'.).!.~.{.].^./.(._.:.<.[.^.}.|.1.2.3.4.5.6.7.C | | | | | | | | | | } { 8.",
"9.& 1 | | | | | | U S ,.0.a.b.c.#.d.e.f.g.h.i.j.k.l.m.n.o.p.Y q.r.s.t.i o | | | | | | | | | } # u.v.",
") w.1 f | | | ( U D x.y.z.A.B.C.D.E.F.G.H.I.J.K.L.M.N.O.P.Q.R.S.T.U.V.W.X.Y.q | | | | | | | } ] @ Z.",
"w.@ p f | | f U `. +.+a.++@+#+$+%+( &+*+=+-+;+>+,+'+)+!+| ~+{+]+^+/+(+_+:+F o q | | | | | | 1 2 @ <+",
">.>.[+] | | q E }+|+a.1+2+3+4+5+| 6+7+8+9+0+a+b+c+d+e+f+g+( %+O.h+i+j+k+l+m+n+;.| | | | | | 1 o+>.>.",
"v.>.& ] p+Y.`.q+x r+s+t+u+v+%+| w+*+j.x+y+b+z+A+B+C+D+E+F+G+H+I+4+#+J+K+L+M+N+O+o q | | | f 1 & >.9.",
"P+Q+] 1 U `.V v R+S+T+U+V+W+%+X+Y+Z+x+`+ @.@+@.@@@#@$@%@&@*@&+| {+=@-@;@>@,@'@)@n+] ( | | | f ] Q+. ",
". Q+!@f ;.m x ~@{@]@^@/@(@_@:@6+<@[@}@|@1@.@.@.@.@2@ @0+x+3@4@%+$+5@6@7@8@9@0@M+-.a@C | } f 1 !@Z.. ",
". 8.Q+2 b@c@d@e@f@g@h@i@j@k@l@m@n@o@p@`+ @.@+@.@@@#@$@%@&@)+q@$+r@s@t@u@v@w@x@y@)@a@C | } } 2 & z@A@",
", B@8.C@D@E@F@G@H@I@J@K@L@M@5@W+N@O@P@x+0+b+z+A+B+C+D+E+Q@R@m@S@T@U@V@W@X@Y@f@Z@`@ #.#q 1 p Q+8.B@+#",
", , @###$#%#&#*#Y@=#-#;#>#,#'#W+I+| )#P@!#0+a+b+c+d+e+~#g+( {#S@(@]#^#-#/#I@(#_#:#<#[#}#} 2 |#P+, +#",
"* . 1#2#3#4#5#6#7#=#-#8#,#9#$+m@( ( &+*+0#-+;+>+,+E+*@a#| ( %+O.l@b#>#c#d#e#(#f#g#h#i#j#q 1 { |#*   ",
"* k#l#m#n#o#p#q#7#=#-#L@(@r#s#| | | | &+)#t#u#v#&@*@4@w#| | ( I+x#r@y#z#d#A#(#B#C#D#E#F#q | } @ 3 . ",
". G#H#I#J#K#L#q#7#=#-#L@V+4+C w#| | ( ( 6+~#0#M#N#a#C ( | | | | {#=@y#z#d#A#(#O#P#Q#R#S#T#| | ] Q+P+",
"% U#V#W#J#K#L#q#7#=#-#L@V+4+I+6+| I+5+%+| w+X#)#a#H+%+%+%+I+| | {#Y#y#z#d#A#(#O#P#Z#`# $T#| | 1 U#> ",
"= .$+$W#J#K#@$q#7#W@-#L@V+#$( | %+W+_@$+s#| | | 6+I+$$_@%${#| w#m@=@&$z#d#e#(#O#*$=$`# $T#| | | _ U#",
"< -$;$>$J#K#L#,$^@'$/#)$(@r#!$%+O.9#f.~${+( ( ~+%+$$l@f.5@r#m@I+O.r@y#{$]$^$/$O#P#Z#`# $T#| | | 2 Q+",
") .$($>$J#K#L#_$:$<$[$}$,#~$_@r#S@|$1$f.#$( } %+$$l@V+2$,#5@3$r#S@b#4$5$I@6$7$8$9$=$R#S#T#| | f @ e ",
"@ 0$a$W#b$c$d$e$f$(#g$h$>#i$s@|$1$j$y#k$4+I+| {#S@(@y#l$>#j@s@m$,#y#n$o$p$7$q$r$s$t$u$v$T#| | | _ : ",
"# w$+$x$y$z$A$B$C$,$D$E$F$G$H$^#G$;#L@m$I$W+4+l@V+J$;#F$;#G$K$K$G$L$M$g$N$O$P$Q$R$S$T$U$1 | f 1 ] ( ",
"= { V$W$X$Y$Z$`$ %.%p$+%-#-#-#@%@%-#^#]#(@#%#%$%%%G$@%-#-#-#@%@%-#-#=#7#7$&%*%=%-%;%S#>%,%f ] '%{ { ",
"9.8.)%!%j#~%{%]%^%/%:$I@=#(%-#-#(%W@=#_%:%>#>#<%G${$[%=#W@/#-#-#(%M$+%^@}%|%1%2%3%4%}#q f 1 ] & 8.9.",
"v.+ <+1 !@5%6%7%8%e$f@T+9%5$-#-#W@I@0%9%a%(%-#-#-#M$+%0%h@'$-#b%W@c%Y@(#d% %e%f%g%h%q | f f ] w.>.v.",
". < 1 1 i%j%k%l%m%n%o%7$p$A#=#=#X@6$:$6$p%d#q%@%/#+%7#r%s%^$5$W@+%Y@/$t%u%v%e%w%x%($q | | f f ] { . ",
". y%@ 1 z%A%B%C%D%E%F%O$G%T+0%H%I%N$7$J%e#d#b%M$K%L%(#M%N%O%g$P%Y@(#Q%R%L#m%S%T%U%V%q | f | f 2 y%. ",
"P+W%+ ^ X%Y%Z%`% &.&^%8$q$]@f@+&7$Q%M%@&A#/##&[$Y@/$M%$&%&,$f@+&7$t%u%L#9$S%&&*&=&-&q | 1 } ^ |#9., ",
"A@, 9.y%;&>&,&'&)&!&D%~&{&]&^&u%/&/&(&_&:&A#e#;@(#M%/&<&<&/&e$R%]&[&L#}&|&1&2&3&4&5&q | 1 2 y%W%, * ",
", , W%6&7&8&9&0&a&)&b&c&1%1%m%d&e&f&$&g&/$:$:$/$g&$&h&h&h&i&j&*%9$1%k&|&l&m&n&o&p&5&q | 1 !@6&P+* * ",
"P+! 6&w.$ q&r&s&t&u&v&w&x&y&z&A&|%B&C&D&u%E&E&u%D&&%B&B&C&B&F&G&H&I&J&K&2&L&M&N&O&P&q | } 1 w.Z.z@, ",
". + w.f Q&R&S&r&T&t&a&U&V&W& &X&Y&Z&Z&Y&Y&Z&Z&Y&Y&Y&Y&Y&Z&Y&`&b&W&V& *m&n&.*9&p&+*@*} | } | f ^ + , ",
", + { C #*$*%*&*r&s&**=*-*;*>*1&,*H&'*H&H&H&H&H&H&H&H&H&'*H&!&)*!*~*{*]*^*/*(*_*:*w$| | } 1 1 <++ P+",
"<*<*Q+] | | w$[*S&}*|*9&1*M&2*U&3*4*4*4*4*4*4*4*4*4*4*4*4*5*V&!*6*7*8*9*r&4&0*@*| | | | | 1 1 [+<*+ ",
"@ 2 @ # | | | a*%*+*q&b*c*d*e*f*g*h*i*i*i*i*i*i*i*i*i*i*i*h*f*j*k*l*S&m*+*n*:*w$| | | | f 1 1 ^ ^ $ ",
"1 } } | | | | #*Q&$*$*5&o*p*8*q*r*r*r*r*r*r*r*r*r*r*r*r*r*r*r*s*t*O&%*@*$*u*q | | | | | | | | } ] ] ",
"{ $ 1 | | | | | | | | w$5&o*S&O&v*v*v*v*v*v*v*v*v*v*v*v*v*v*v*w*x*n*$*} | | | | | | | | | | y*1 $ <+",
"Z.@ 1 | | | | | | | | } w$@*:*z*z*z*z*p z*z*p z*z*z*z*z*z*z*z*z*@*u*#*| | | | | | | | | | | | 1 w.) ",
"^ ] 1 } | | | | | | | | | } } #*} } } } } } } } } } } } } } } } } | | | | | | | | | | | | | | | $ 2 ",
"| | } 1 | | f f | | f f | | | | } | | | | | | | | | | | f f f f | | | | f f | | | | f f | | | | f | ",
"| | | | | | f f | f f f | | | | 1 1 | | | | | | | | | | f f f f y*y*y*| 1 1 f 1 f | f y*| | | | f f ",
"p ] | f f | f f | f f !@p 1 p !@^ 2 1 ] ] 1 | 1 | | | | f f ] 2 ^ 2 ] 1 } ] p 1 | y*f 1 1 } y*| ] 2 ",
"Q+<+] 1 f f f ] ] 1 ] [+& ^ 6&|#A*6&2 & Q+!@1 1 | 1 1 | ] ] { |#|#|#& p p <+& p 1 1 1 1 y*1 1 1 <+|#",
". + Q+{ ] f ] & o+@ ^ <*>.+ 9.B*B*9.y%8.8.o+] ] ] @ 2 ] <+{ + B@B*v.W%< { <*<*@ w.o+& ] f ] <+& + B@",
"P+. P+8.w.] 2 8.C*|#@ <*. . , , , , P+P+B@D*w.] @ y%{ @ A*. . +#, , , A@. P+<*@ y%C*8.^ 1 ^ + ! A@, "};
