/* XPM */
static char * wall_xpm[] = {
"50 50 72 1",
" 	c #4EAF7B",
".	c #51B17A",
"+	c #5BB770",
"@	c #68C062",
"#	c #72C859",
"$	c #6EC45D",
"%	c #56B474",
"&	c #64BB67",
"*	c #4FB07B",
"=	c #67C063",
"-	c #6CC45E",
";	c #5CB86E",
">	c #57B573",
",	c #4EAF7C",
"'	c #50B07B",
")	c #5EBA6C",
"!	c #53B278",
"~	c #6BC360",
"{	c #64BD67",
"]	c #71C659",
"^	c #6CC260",
"/	c #63BD67",
"(	c #73C857",
"_	c #6FC65B",
":	c #6BC25F",
"<	c #61BC69",
"[	c #5AB770",
"}	c #74C858",
"|	c #74C857",
"1	c #73C658",
"2	c #6FC25D",
"3	c #5BB76F",
"4	c #67BF63",
"5	c #5FBA6B",
"6	c #74C757",
"7	c #73C757",
"8	c #70C45C",
"9	c #58AF74",
"0	c #55AF76",
"a	c #53AB79",
"b	c #75C856",
"c	c #64BC67",
"d	c #51AB7A",
"e	c #6ABF61",
"f	c #60BA6B",
"g	c #68BE63",
"h	c #63B86A",
"i	c #74C856",
"j	c #62B76A",
"k	c #51AF7A",
"l	c #62BA69",
"m	c #70C35C",
"n	c #54B376",
"o	c #50AD7B",
"p	c #4EAA7D",
"q	c #4EB07B",
"r	c #5BB371",
"s	c #D38658",
"t	c #5BB172",
"u	c #EFB171",
"v	c #FAD586",
"w	c #B56E4B",
"x	c #A0654D",
"y	c #6CC060",
"z	c #61B76B",
"A	c #4FAF7B",
"B	c #5DB76E",
"C	c #54AC78",
"D	c #58B273",
"E	c #4DA77F",
"F	c #4FA67E",
"G	c #55AC77",
" ..+@#$+%&@+..***..**%=#-;==>.**,,'...+=)!+~#@+...",
".+{=]#]{{@^++).,*.)+>/#(_:-_=/;*,,%<{%[~@==]}]=<[.",
")@]]||##11]{{2))3/:4{]|(#_((]_=5)){]#={##]]#|}]]@)",
"$]||||||||6]]]$$-_7__|||((((((]_28]|}]8}}}}}||||#$",
"||||||||||||||||(((||||||(||((((||||||||}|}}||||}}",
"||||||||||||||||((||||||||||((||||||||||||||||||}}",
"@]||||||||||||||(((|||||||||(||||||||||||||||||1$^",
"9{#|||||||||||||(((||||||||||||||||||||||||||||}{0",
"a&1|||||||||||||(b||||||||(|||||||||||||||||||}#cd",
")e16||||||||||||(b|b|||(|||(||||||||||||||||||}]@f",
"e@86||6||6|||||6b(||||(|||||||||||||||||||||||12@g",
"99h]|||||6||||||ib||||||||||||||||||||||||||||1j99",
"d9&]6|6|||||||||((b(|(||||||||(||||||||||||||61&9a",
"kl]1||||||||||||b(b(||||||||||(|||||||||||||||6]l.",
".lm6||||||||||||(iii|||||(||||||||||||||||||}61mf.",
".0l266||||||||||iiii|||||(||||(|||||||||||||}}2&no",
",p0l]|||||||||||iiii||||||||||||||||||||||||18l0pq",
",,*r^1|||||ss|||(i(i|||ss||||||||||ss|||||||}2tk,q",
"*.+/]]||||suus||b(i(||suus||||||||suus|||||||1{t* ",
"*+@#|||||suvvus|(b(||suvvus||||||suvvus|||||||}@3.",
".<](||||suvssvus(|||suvssvus||||suvssvus|||||||]lk",
"%@#|||||svssssvs|(||svssssvs||||svssssvs|||||||14>",
"=~||||sswsssssswsssswsssssswsssswsssssswss||||||_4",
"<2(||suuwsssssswuuuuwsssssswuuuuwsssssswuus|||||2l",
")~}|svvvwsssssswvvvvwsssssswvvvvwsssssswvvvs|||6@5",
"@]6}wssswsssssswsssswsssssswsssswsssssswsssw||||_:",
"#}1}wsssxwsssswxssssxwsssswxssssxwsssswxsssw6|61](",
"={^11wssxwsssswxssssxwsssswxssssxwsssswxssw666]y{{",
"a0z166wwxwsssswxwwwwxwsssswxwwwwxwsssswxww||61]&0a",
"d+g1|||||wssssw||||||wssssw||||||wssssw|||||66]e9d",
".<11|AAAAAwsswAAAAAAAAwsswAAAAAAAAwsswAAAAA||66]{.",
".B@1||AAAAwsswAAAAAAAAwsswAAAAAAAAwsswAAAA||6|62B.",
"kC+^]||||AAAAAA||||||AAAAAA||||||AAAAAA|||||1}^ta,",
"o,aB$|||||||||||||||||||||||||||||||||||||||12BC,*",
",,Cz2|||||||||||||||||||||||||||||||||||||||1mzk**",
"k!ze]|||||||||||||||||||||||||||||||||||||||}1efn,",
".+e6||||||||||||||||||||||||||||||||||||||||}|6^+,",
",+{7|||||||||||||||6||||6|||||||||||||||||||}11g+k",
"rrl]||||||||||||||||||6|||||||||||6||||||||||11hr+",
"@2@#|||||||||||||||||66||6||||||||||||||||||611^^$",
"1}}|||||||||||||||6||6|||||||||||||||||||||||||}]]",
"{$1|||||||||||||||||||||||||||||||||||||||||||b1$g",
"f@1||||||||||||||||6||6||||||||||||||||||||||||1e)",
"^]1}||||||||||||||||||||||||||||||||||||||||||||$2",
"||}1||66||66||||}|||||||||||6666||||66||||66||||6|",
"||||||66|666||||11||||||||||6666bbb|11616|6b||||66",
"8]|66|66|66m818m^21]]1|1||||66]2^2]1}]81|b611}b|]2",
"lg]1666]]1]h&^ztDz2&lm11|11|]]{ttt&88g&81111b111gt",
".+l{]6]&j@^r9+aEEaB00j]]]@2]g{+pEdC<{rr@ej&]6]g&+p",
"k.k0e]20Ft@r..,,,,kkpGe]@B{@D..q,,,o.kr@BF0^1^+!o,"};
